G04 #@! TF.FileFunction,Legend,Bot*
%FSLAX46Y46*%
G04 Gerber Fmt 4.6, Leading zero omitted, Abs format (unit mm)*
G04 Created by KiCad (PCBNEW 4.0.2+dfsg1-stable) date Tue 23 Aug 2016 16:58:00 SAST*
%MOMM*%
G01*
G04 APERTURE LIST*
%ADD10C,0.100000*%
%ADD11C,0.200000*%
%ADD12C,0.300000*%
%ADD13C,0.010000*%
G04 APERTURE END LIST*
D10*
D11*
X144145000Y-75184000D02*
X134874000Y-75184000D01*
X141819047Y-74874381D02*
X141819047Y-73874381D01*
X141438094Y-73874381D01*
X141342856Y-73922000D01*
X141295237Y-73969619D01*
X141247618Y-74064857D01*
X141247618Y-74207714D01*
X141295237Y-74302952D01*
X141342856Y-74350571D01*
X141438094Y-74398190D01*
X141819047Y-74398190D01*
X140914285Y-73874381D02*
X140676190Y-74874381D01*
X140485713Y-74160095D01*
X140295237Y-74874381D01*
X140057142Y-73874381D01*
X139676190Y-74874381D02*
X139676190Y-73874381D01*
X139342856Y-74588667D01*
X139009523Y-73874381D01*
X139009523Y-74874381D01*
X138533333Y-74874381D02*
X138533333Y-73874381D01*
X138152381Y-73874381D02*
X137485714Y-74874381D01*
X137485714Y-73874381D02*
X138152381Y-74874381D01*
X144145000Y-75184000D02*
X143637000Y-75692000D01*
X144145000Y-75184000D02*
X143637000Y-74676000D01*
D12*
X133869714Y-75931143D02*
X133655428Y-76002571D01*
X133298285Y-76002571D01*
X133155428Y-75931143D01*
X133083999Y-75859714D01*
X133012571Y-75716857D01*
X133012571Y-75574000D01*
X133083999Y-75431143D01*
X133155428Y-75359714D01*
X133298285Y-75288286D01*
X133583999Y-75216857D01*
X133726857Y-75145429D01*
X133798285Y-75074000D01*
X133869714Y-74931143D01*
X133869714Y-74788286D01*
X133798285Y-74645429D01*
X133726857Y-74574000D01*
X133583999Y-74502571D01*
X133226857Y-74502571D01*
X133012571Y-74574000D01*
X132369714Y-76002571D02*
X132369714Y-74502571D01*
X130869714Y-74574000D02*
X131012571Y-74502571D01*
X131226857Y-74502571D01*
X131441142Y-74574000D01*
X131584000Y-74716857D01*
X131655428Y-74859714D01*
X131726857Y-75145429D01*
X131726857Y-75359714D01*
X131655428Y-75645429D01*
X131584000Y-75788286D01*
X131441142Y-75931143D01*
X131226857Y-76002571D01*
X131084000Y-76002571D01*
X130869714Y-75931143D01*
X130798285Y-75859714D01*
X130798285Y-75359714D01*
X131084000Y-75359714D01*
X134334000Y-76902571D02*
X133834000Y-78402571D01*
X133334000Y-76902571D01*
X131976857Y-78259714D02*
X132048286Y-78331143D01*
X132262572Y-78402571D01*
X132405429Y-78402571D01*
X132619714Y-78331143D01*
X132762572Y-78188286D01*
X132834000Y-78045429D01*
X132905429Y-77759714D01*
X132905429Y-77545429D01*
X132834000Y-77259714D01*
X132762572Y-77116857D01*
X132619714Y-76974000D01*
X132405429Y-76902571D01*
X132262572Y-76902571D01*
X132048286Y-76974000D01*
X131976857Y-77045429D01*
X130476857Y-78259714D02*
X130548286Y-78331143D01*
X130762572Y-78402571D01*
X130905429Y-78402571D01*
X131119714Y-78331143D01*
X131262572Y-78188286D01*
X131334000Y-78045429D01*
X131405429Y-77759714D01*
X131405429Y-77545429D01*
X131334000Y-77259714D01*
X131262572Y-77116857D01*
X131119714Y-76974000D01*
X130905429Y-76902571D01*
X130762572Y-76902571D01*
X130548286Y-76974000D01*
X130476857Y-77045429D01*
X133476857Y-79374000D02*
X133619714Y-79302571D01*
X133834000Y-79302571D01*
X134048285Y-79374000D01*
X134191143Y-79516857D01*
X134262571Y-79659714D01*
X134334000Y-79945429D01*
X134334000Y-80159714D01*
X134262571Y-80445429D01*
X134191143Y-80588286D01*
X134048285Y-80731143D01*
X133834000Y-80802571D01*
X133691143Y-80802571D01*
X133476857Y-80731143D01*
X133405428Y-80659714D01*
X133405428Y-80159714D01*
X133691143Y-80159714D01*
X132762571Y-80802571D02*
X132762571Y-79302571D01*
X131905428Y-80802571D01*
X131905428Y-79302571D01*
X131191142Y-80802571D02*
X131191142Y-79302571D01*
X130833999Y-79302571D01*
X130619714Y-79374000D01*
X130476856Y-79516857D01*
X130405428Y-79659714D01*
X130333999Y-79945429D01*
X130333999Y-80159714D01*
X130405428Y-80445429D01*
X130476856Y-80588286D01*
X130619714Y-80731143D01*
X130833999Y-80802571D01*
X131191142Y-80802571D01*
D13*
G36*
X142100256Y-80659918D02*
X142044799Y-80687568D01*
X141995852Y-80738480D01*
X141982371Y-80757338D01*
X141967686Y-80782015D01*
X141958158Y-80808816D01*
X141952707Y-80844587D01*
X141950253Y-80896169D01*
X141949714Y-80964267D01*
X141952148Y-81057588D01*
X141960606Y-81127657D01*
X141976826Y-81179931D01*
X142002546Y-81219869D01*
X142039503Y-81252929D01*
X142042218Y-81254886D01*
X142078640Y-81274908D01*
X142122498Y-81284815D01*
X142178276Y-81287257D01*
X142268952Y-81287257D01*
X142268990Y-81375283D01*
X142269834Y-81424308D01*
X142274976Y-81453065D01*
X142288413Y-81470311D01*
X142314142Y-81484808D01*
X142320321Y-81487769D01*
X142349236Y-81501648D01*
X142371624Y-81510414D01*
X142388271Y-81511171D01*
X142399964Y-81501023D01*
X142407490Y-81477073D01*
X142411634Y-81436426D01*
X142413185Y-81376186D01*
X142412929Y-81293455D01*
X142411651Y-81185339D01*
X142411252Y-81153000D01*
X142409815Y-81041524D01*
X142408528Y-80968603D01*
X142269029Y-80968603D01*
X142268245Y-81030499D01*
X142264760Y-81070997D01*
X142256876Y-81097708D01*
X142242895Y-81118244D01*
X142233403Y-81128260D01*
X142194596Y-81157567D01*
X142160237Y-81159952D01*
X142124784Y-81135750D01*
X142123886Y-81134857D01*
X142109461Y-81116153D01*
X142100687Y-81090732D01*
X142096261Y-81051584D01*
X142094882Y-80991697D01*
X142094857Y-80978430D01*
X142098188Y-80895901D01*
X142109031Y-80838691D01*
X142128660Y-80803766D01*
X142158350Y-80788094D01*
X142175509Y-80786514D01*
X142216234Y-80793926D01*
X142244168Y-80818330D01*
X142260983Y-80862980D01*
X142268350Y-80931130D01*
X142269029Y-80968603D01*
X142408528Y-80968603D01*
X142408292Y-80955245D01*
X142406323Y-80890333D01*
X142403550Y-80842958D01*
X142399612Y-80809290D01*
X142394151Y-80785498D01*
X142386808Y-80767753D01*
X142377223Y-80752224D01*
X142373113Y-80746381D01*
X142318595Y-80691185D01*
X142249664Y-80659890D01*
X142169928Y-80651165D01*
X142100256Y-80659918D01*
X142100256Y-80659918D01*
G37*
X142100256Y-80659918D02*
X142044799Y-80687568D01*
X141995852Y-80738480D01*
X141982371Y-80757338D01*
X141967686Y-80782015D01*
X141958158Y-80808816D01*
X141952707Y-80844587D01*
X141950253Y-80896169D01*
X141949714Y-80964267D01*
X141952148Y-81057588D01*
X141960606Y-81127657D01*
X141976826Y-81179931D01*
X142002546Y-81219869D01*
X142039503Y-81252929D01*
X142042218Y-81254886D01*
X142078640Y-81274908D01*
X142122498Y-81284815D01*
X142178276Y-81287257D01*
X142268952Y-81287257D01*
X142268990Y-81375283D01*
X142269834Y-81424308D01*
X142274976Y-81453065D01*
X142288413Y-81470311D01*
X142314142Y-81484808D01*
X142320321Y-81487769D01*
X142349236Y-81501648D01*
X142371624Y-81510414D01*
X142388271Y-81511171D01*
X142399964Y-81501023D01*
X142407490Y-81477073D01*
X142411634Y-81436426D01*
X142413185Y-81376186D01*
X142412929Y-81293455D01*
X142411651Y-81185339D01*
X142411252Y-81153000D01*
X142409815Y-81041524D01*
X142408528Y-80968603D01*
X142269029Y-80968603D01*
X142268245Y-81030499D01*
X142264760Y-81070997D01*
X142256876Y-81097708D01*
X142242895Y-81118244D01*
X142233403Y-81128260D01*
X142194596Y-81157567D01*
X142160237Y-81159952D01*
X142124784Y-81135750D01*
X142123886Y-81134857D01*
X142109461Y-81116153D01*
X142100687Y-81090732D01*
X142096261Y-81051584D01*
X142094882Y-80991697D01*
X142094857Y-80978430D01*
X142098188Y-80895901D01*
X142109031Y-80838691D01*
X142128660Y-80803766D01*
X142158350Y-80788094D01*
X142175509Y-80786514D01*
X142216234Y-80793926D01*
X142244168Y-80818330D01*
X142260983Y-80862980D01*
X142268350Y-80931130D01*
X142269029Y-80968603D01*
X142408528Y-80968603D01*
X142408292Y-80955245D01*
X142406323Y-80890333D01*
X142403550Y-80842958D01*
X142399612Y-80809290D01*
X142394151Y-80785498D01*
X142386808Y-80767753D01*
X142377223Y-80752224D01*
X142373113Y-80746381D01*
X142318595Y-80691185D01*
X142249664Y-80659890D01*
X142169928Y-80651165D01*
X142100256Y-80659918D01*
G36*
X140983907Y-80667780D02*
X140937328Y-80694723D01*
X140904943Y-80721466D01*
X140881258Y-80749484D01*
X140864941Y-80783748D01*
X140854661Y-80829227D01*
X140849086Y-80890892D01*
X140846884Y-80973711D01*
X140846629Y-81033246D01*
X140846629Y-81252391D01*
X140908314Y-81280044D01*
X140970000Y-81307697D01*
X140977257Y-81067670D01*
X140980256Y-80978028D01*
X140983402Y-80912962D01*
X140987299Y-80868026D01*
X140992553Y-80838770D01*
X140999769Y-80820748D01*
X141009550Y-80809511D01*
X141012688Y-80807079D01*
X141060239Y-80788083D01*
X141108303Y-80795600D01*
X141136914Y-80815543D01*
X141148553Y-80829675D01*
X141156609Y-80848220D01*
X141161729Y-80876334D01*
X141164559Y-80919173D01*
X141165744Y-80981895D01*
X141165943Y-81047261D01*
X141165982Y-81129268D01*
X141167386Y-81187316D01*
X141172086Y-81226465D01*
X141182013Y-81251780D01*
X141199097Y-81268323D01*
X141225268Y-81281156D01*
X141260225Y-81294491D01*
X141298404Y-81309007D01*
X141293859Y-81051389D01*
X141292029Y-80958519D01*
X141289888Y-80889889D01*
X141286819Y-80840711D01*
X141282206Y-80806198D01*
X141275432Y-80781562D01*
X141265881Y-80762016D01*
X141254366Y-80744770D01*
X141198810Y-80689680D01*
X141131020Y-80657822D01*
X141057287Y-80650191D01*
X140983907Y-80667780D01*
X140983907Y-80667780D01*
G37*
X140983907Y-80667780D02*
X140937328Y-80694723D01*
X140904943Y-80721466D01*
X140881258Y-80749484D01*
X140864941Y-80783748D01*
X140854661Y-80829227D01*
X140849086Y-80890892D01*
X140846884Y-80973711D01*
X140846629Y-81033246D01*
X140846629Y-81252391D01*
X140908314Y-81280044D01*
X140970000Y-81307697D01*
X140977257Y-81067670D01*
X140980256Y-80978028D01*
X140983402Y-80912962D01*
X140987299Y-80868026D01*
X140992553Y-80838770D01*
X140999769Y-80820748D01*
X141009550Y-80809511D01*
X141012688Y-80807079D01*
X141060239Y-80788083D01*
X141108303Y-80795600D01*
X141136914Y-80815543D01*
X141148553Y-80829675D01*
X141156609Y-80848220D01*
X141161729Y-80876334D01*
X141164559Y-80919173D01*
X141165744Y-80981895D01*
X141165943Y-81047261D01*
X141165982Y-81129268D01*
X141167386Y-81187316D01*
X141172086Y-81226465D01*
X141182013Y-81251780D01*
X141199097Y-81268323D01*
X141225268Y-81281156D01*
X141260225Y-81294491D01*
X141298404Y-81309007D01*
X141293859Y-81051389D01*
X141292029Y-80958519D01*
X141289888Y-80889889D01*
X141286819Y-80840711D01*
X141282206Y-80806198D01*
X141275432Y-80781562D01*
X141265881Y-80762016D01*
X141254366Y-80744770D01*
X141198810Y-80689680D01*
X141131020Y-80657822D01*
X141057287Y-80650191D01*
X140983907Y-80667780D01*
G36*
X142658885Y-80661962D02*
X142590855Y-80697733D01*
X142540649Y-80755301D01*
X142522815Y-80792312D01*
X142508937Y-80847882D01*
X142501833Y-80918096D01*
X142501160Y-80994727D01*
X142506573Y-81069552D01*
X142517730Y-81134342D01*
X142534286Y-81180873D01*
X142539374Y-81188887D01*
X142599645Y-81248707D01*
X142671231Y-81284535D01*
X142748908Y-81295020D01*
X142827452Y-81278810D01*
X142849311Y-81269092D01*
X142891878Y-81239143D01*
X142929237Y-81199433D01*
X142932768Y-81194397D01*
X142947119Y-81170124D01*
X142956606Y-81144178D01*
X142962210Y-81110022D01*
X142964914Y-81061119D01*
X142965701Y-80990935D01*
X142965714Y-80975200D01*
X142965678Y-80970192D01*
X142820571Y-80970192D01*
X142819727Y-81036430D01*
X142816404Y-81080386D01*
X142809417Y-81108779D01*
X142797584Y-81128325D01*
X142791543Y-81134857D01*
X142756814Y-81159680D01*
X142723097Y-81158548D01*
X142689005Y-81137016D01*
X142668671Y-81114029D01*
X142656629Y-81080478D01*
X142649866Y-81027569D01*
X142649402Y-81021399D01*
X142648248Y-80925513D01*
X142660312Y-80854299D01*
X142685430Y-80808194D01*
X142723440Y-80787635D01*
X142737008Y-80786514D01*
X142772636Y-80792152D01*
X142797006Y-80811686D01*
X142811907Y-80849042D01*
X142819125Y-80908150D01*
X142820571Y-80970192D01*
X142965678Y-80970192D01*
X142965174Y-80900413D01*
X142962904Y-80848159D01*
X142957932Y-80811949D01*
X142949287Y-80785299D01*
X142935995Y-80761722D01*
X142933057Y-80757338D01*
X142883687Y-80698249D01*
X142829891Y-80663947D01*
X142764398Y-80650331D01*
X142742158Y-80649665D01*
X142658885Y-80661962D01*
X142658885Y-80661962D01*
G37*
X142658885Y-80661962D02*
X142590855Y-80697733D01*
X142540649Y-80755301D01*
X142522815Y-80792312D01*
X142508937Y-80847882D01*
X142501833Y-80918096D01*
X142501160Y-80994727D01*
X142506573Y-81069552D01*
X142517730Y-81134342D01*
X142534286Y-81180873D01*
X142539374Y-81188887D01*
X142599645Y-81248707D01*
X142671231Y-81284535D01*
X142748908Y-81295020D01*
X142827452Y-81278810D01*
X142849311Y-81269092D01*
X142891878Y-81239143D01*
X142929237Y-81199433D01*
X142932768Y-81194397D01*
X142947119Y-81170124D01*
X142956606Y-81144178D01*
X142962210Y-81110022D01*
X142964914Y-81061119D01*
X142965701Y-80990935D01*
X142965714Y-80975200D01*
X142965678Y-80970192D01*
X142820571Y-80970192D01*
X142819727Y-81036430D01*
X142816404Y-81080386D01*
X142809417Y-81108779D01*
X142797584Y-81128325D01*
X142791543Y-81134857D01*
X142756814Y-81159680D01*
X142723097Y-81158548D01*
X142689005Y-81137016D01*
X142668671Y-81114029D01*
X142656629Y-81080478D01*
X142649866Y-81027569D01*
X142649402Y-81021399D01*
X142648248Y-80925513D01*
X142660312Y-80854299D01*
X142685430Y-80808194D01*
X142723440Y-80787635D01*
X142737008Y-80786514D01*
X142772636Y-80792152D01*
X142797006Y-80811686D01*
X142811907Y-80849042D01*
X142819125Y-80908150D01*
X142820571Y-80970192D01*
X142965678Y-80970192D01*
X142965174Y-80900413D01*
X142962904Y-80848159D01*
X142957932Y-80811949D01*
X142949287Y-80785299D01*
X142935995Y-80761722D01*
X142933057Y-80757338D01*
X142883687Y-80698249D01*
X142829891Y-80663947D01*
X142764398Y-80650331D01*
X142742158Y-80649665D01*
X142658885Y-80661962D01*
G36*
X141531697Y-80671239D02*
X141474473Y-80709735D01*
X141430251Y-80765335D01*
X141403833Y-80836086D01*
X141398490Y-80888162D01*
X141399097Y-80909893D01*
X141404178Y-80926531D01*
X141418145Y-80941437D01*
X141445411Y-80957973D01*
X141490388Y-80979498D01*
X141557489Y-81009374D01*
X141557829Y-81009524D01*
X141619593Y-81037813D01*
X141670241Y-81062933D01*
X141704596Y-81082179D01*
X141717482Y-81092848D01*
X141717486Y-81092934D01*
X141706128Y-81116166D01*
X141679569Y-81141774D01*
X141649077Y-81160221D01*
X141633630Y-81163886D01*
X141591485Y-81151212D01*
X141555192Y-81119471D01*
X141537483Y-81084572D01*
X141520448Y-81058845D01*
X141487078Y-81029546D01*
X141447851Y-81004235D01*
X141413244Y-80990471D01*
X141406007Y-80989714D01*
X141397861Y-81002160D01*
X141397370Y-81033972D01*
X141403357Y-81076866D01*
X141414643Y-81122558D01*
X141430050Y-81162761D01*
X141430829Y-81164322D01*
X141477196Y-81229062D01*
X141537289Y-81273097D01*
X141605535Y-81294711D01*
X141676362Y-81292185D01*
X141744196Y-81263804D01*
X141747212Y-81261808D01*
X141800573Y-81213448D01*
X141835660Y-81150352D01*
X141855078Y-81067387D01*
X141857684Y-81044078D01*
X141862299Y-80934055D01*
X141856767Y-80882748D01*
X141717486Y-80882748D01*
X141715676Y-80914753D01*
X141705778Y-80924093D01*
X141681102Y-80917105D01*
X141642205Y-80900587D01*
X141598725Y-80879881D01*
X141597644Y-80879333D01*
X141560791Y-80859949D01*
X141546000Y-80847013D01*
X141549647Y-80833451D01*
X141565005Y-80815632D01*
X141604077Y-80789845D01*
X141646154Y-80787950D01*
X141683897Y-80806717D01*
X141709966Y-80842915D01*
X141717486Y-80882748D01*
X141856767Y-80882748D01*
X141852806Y-80846027D01*
X141828450Y-80776212D01*
X141794544Y-80727302D01*
X141733347Y-80677878D01*
X141665937Y-80653359D01*
X141597120Y-80651797D01*
X141531697Y-80671239D01*
X141531697Y-80671239D01*
G37*
X141531697Y-80671239D02*
X141474473Y-80709735D01*
X141430251Y-80765335D01*
X141403833Y-80836086D01*
X141398490Y-80888162D01*
X141399097Y-80909893D01*
X141404178Y-80926531D01*
X141418145Y-80941437D01*
X141445411Y-80957973D01*
X141490388Y-80979498D01*
X141557489Y-81009374D01*
X141557829Y-81009524D01*
X141619593Y-81037813D01*
X141670241Y-81062933D01*
X141704596Y-81082179D01*
X141717482Y-81092848D01*
X141717486Y-81092934D01*
X141706128Y-81116166D01*
X141679569Y-81141774D01*
X141649077Y-81160221D01*
X141633630Y-81163886D01*
X141591485Y-81151212D01*
X141555192Y-81119471D01*
X141537483Y-81084572D01*
X141520448Y-81058845D01*
X141487078Y-81029546D01*
X141447851Y-81004235D01*
X141413244Y-80990471D01*
X141406007Y-80989714D01*
X141397861Y-81002160D01*
X141397370Y-81033972D01*
X141403357Y-81076866D01*
X141414643Y-81122558D01*
X141430050Y-81162761D01*
X141430829Y-81164322D01*
X141477196Y-81229062D01*
X141537289Y-81273097D01*
X141605535Y-81294711D01*
X141676362Y-81292185D01*
X141744196Y-81263804D01*
X141747212Y-81261808D01*
X141800573Y-81213448D01*
X141835660Y-81150352D01*
X141855078Y-81067387D01*
X141857684Y-81044078D01*
X141862299Y-80934055D01*
X141856767Y-80882748D01*
X141717486Y-80882748D01*
X141715676Y-80914753D01*
X141705778Y-80924093D01*
X141681102Y-80917105D01*
X141642205Y-80900587D01*
X141598725Y-80879881D01*
X141597644Y-80879333D01*
X141560791Y-80859949D01*
X141546000Y-80847013D01*
X141549647Y-80833451D01*
X141565005Y-80815632D01*
X141604077Y-80789845D01*
X141646154Y-80787950D01*
X141683897Y-80806717D01*
X141709966Y-80842915D01*
X141717486Y-80882748D01*
X141856767Y-80882748D01*
X141852806Y-80846027D01*
X141828450Y-80776212D01*
X141794544Y-80727302D01*
X141733347Y-80677878D01*
X141665937Y-80653359D01*
X141597120Y-80651797D01*
X141531697Y-80671239D01*
G36*
X140324114Y-80591289D02*
X140319861Y-80650613D01*
X140314975Y-80685572D01*
X140308205Y-80700820D01*
X140298298Y-80701015D01*
X140295086Y-80699195D01*
X140252356Y-80686015D01*
X140196773Y-80686785D01*
X140140263Y-80700333D01*
X140104918Y-80717861D01*
X140068679Y-80745861D01*
X140042187Y-80777549D01*
X140024001Y-80817813D01*
X140012678Y-80871543D01*
X140006778Y-80943626D01*
X140004857Y-81038951D01*
X140004823Y-81057237D01*
X140004800Y-81262646D01*
X140050509Y-81278580D01*
X140082973Y-81289420D01*
X140100785Y-81294468D01*
X140101309Y-81294514D01*
X140103063Y-81280828D01*
X140104556Y-81243076D01*
X140105674Y-81186224D01*
X140106303Y-81115234D01*
X140106400Y-81072073D01*
X140106602Y-80986973D01*
X140107642Y-80925981D01*
X140110169Y-80884177D01*
X140114836Y-80856642D01*
X140122293Y-80838456D01*
X140133189Y-80824698D01*
X140139993Y-80818073D01*
X140186728Y-80791375D01*
X140237728Y-80789375D01*
X140283999Y-80811955D01*
X140292556Y-80820107D01*
X140305107Y-80835436D01*
X140313812Y-80853618D01*
X140319369Y-80879909D01*
X140322474Y-80919562D01*
X140323824Y-80977832D01*
X140324114Y-81058173D01*
X140324114Y-81262646D01*
X140369823Y-81278580D01*
X140402287Y-81289420D01*
X140420099Y-81294468D01*
X140420623Y-81294514D01*
X140421963Y-81280623D01*
X140423172Y-81241439D01*
X140424199Y-81180700D01*
X140424998Y-81102141D01*
X140425519Y-81009498D01*
X140425714Y-80906509D01*
X140425714Y-80509342D01*
X140378543Y-80489444D01*
X140331371Y-80469547D01*
X140324114Y-80591289D01*
X140324114Y-80591289D01*
G37*
X140324114Y-80591289D02*
X140319861Y-80650613D01*
X140314975Y-80685572D01*
X140308205Y-80700820D01*
X140298298Y-80701015D01*
X140295086Y-80699195D01*
X140252356Y-80686015D01*
X140196773Y-80686785D01*
X140140263Y-80700333D01*
X140104918Y-80717861D01*
X140068679Y-80745861D01*
X140042187Y-80777549D01*
X140024001Y-80817813D01*
X140012678Y-80871543D01*
X140006778Y-80943626D01*
X140004857Y-81038951D01*
X140004823Y-81057237D01*
X140004800Y-81262646D01*
X140050509Y-81278580D01*
X140082973Y-81289420D01*
X140100785Y-81294468D01*
X140101309Y-81294514D01*
X140103063Y-81280828D01*
X140104556Y-81243076D01*
X140105674Y-81186224D01*
X140106303Y-81115234D01*
X140106400Y-81072073D01*
X140106602Y-80986973D01*
X140107642Y-80925981D01*
X140110169Y-80884177D01*
X140114836Y-80856642D01*
X140122293Y-80838456D01*
X140133189Y-80824698D01*
X140139993Y-80818073D01*
X140186728Y-80791375D01*
X140237728Y-80789375D01*
X140283999Y-80811955D01*
X140292556Y-80820107D01*
X140305107Y-80835436D01*
X140313812Y-80853618D01*
X140319369Y-80879909D01*
X140322474Y-80919562D01*
X140323824Y-80977832D01*
X140324114Y-81058173D01*
X140324114Y-81262646D01*
X140369823Y-81278580D01*
X140402287Y-81289420D01*
X140420099Y-81294468D01*
X140420623Y-81294514D01*
X140421963Y-81280623D01*
X140423172Y-81241439D01*
X140424199Y-81180700D01*
X140424998Y-81102141D01*
X140425519Y-81009498D01*
X140425714Y-80906509D01*
X140425714Y-80509342D01*
X140378543Y-80489444D01*
X140331371Y-80469547D01*
X140324114Y-80591289D01*
G36*
X139660256Y-80690968D02*
X139603384Y-80712087D01*
X139602733Y-80712493D01*
X139567560Y-80738380D01*
X139541593Y-80768633D01*
X139523330Y-80808058D01*
X139511268Y-80861462D01*
X139503904Y-80933651D01*
X139499736Y-81029432D01*
X139499371Y-81043078D01*
X139494124Y-81248842D01*
X139538284Y-81271678D01*
X139570237Y-81287110D01*
X139589530Y-81294423D01*
X139590422Y-81294514D01*
X139593761Y-81281022D01*
X139596413Y-81244626D01*
X139598044Y-81191452D01*
X139598400Y-81148393D01*
X139598408Y-81078641D01*
X139601597Y-81034837D01*
X139612712Y-81013944D01*
X139636499Y-81012925D01*
X139677704Y-81028741D01*
X139739914Y-81057815D01*
X139785659Y-81081963D01*
X139809187Y-81102913D01*
X139816104Y-81125747D01*
X139816114Y-81126877D01*
X139804701Y-81166212D01*
X139770908Y-81187462D01*
X139719191Y-81190539D01*
X139681939Y-81190006D01*
X139662297Y-81200735D01*
X139650048Y-81226505D01*
X139642998Y-81259337D01*
X139653158Y-81277966D01*
X139656983Y-81280632D01*
X139692999Y-81291340D01*
X139743434Y-81292856D01*
X139795374Y-81285759D01*
X139832178Y-81272788D01*
X139883062Y-81229585D01*
X139911986Y-81169446D01*
X139917714Y-81122462D01*
X139913343Y-81080082D01*
X139897525Y-81045488D01*
X139866203Y-81014763D01*
X139815322Y-80983990D01*
X139740824Y-80949252D01*
X139736286Y-80947288D01*
X139669179Y-80916287D01*
X139627768Y-80890862D01*
X139610019Y-80868014D01*
X139613893Y-80844745D01*
X139637357Y-80818056D01*
X139644373Y-80811914D01*
X139691370Y-80788100D01*
X139740067Y-80789103D01*
X139782478Y-80812451D01*
X139810616Y-80855675D01*
X139813231Y-80864160D01*
X139838692Y-80905308D01*
X139870999Y-80925128D01*
X139917714Y-80944770D01*
X139917714Y-80893950D01*
X139903504Y-80820082D01*
X139861325Y-80752327D01*
X139839376Y-80729661D01*
X139789483Y-80700569D01*
X139726033Y-80687400D01*
X139660256Y-80690968D01*
X139660256Y-80690968D01*
G37*
X139660256Y-80690968D02*
X139603384Y-80712087D01*
X139602733Y-80712493D01*
X139567560Y-80738380D01*
X139541593Y-80768633D01*
X139523330Y-80808058D01*
X139511268Y-80861462D01*
X139503904Y-80933651D01*
X139499736Y-81029432D01*
X139499371Y-81043078D01*
X139494124Y-81248842D01*
X139538284Y-81271678D01*
X139570237Y-81287110D01*
X139589530Y-81294423D01*
X139590422Y-81294514D01*
X139593761Y-81281022D01*
X139596413Y-81244626D01*
X139598044Y-81191452D01*
X139598400Y-81148393D01*
X139598408Y-81078641D01*
X139601597Y-81034837D01*
X139612712Y-81013944D01*
X139636499Y-81012925D01*
X139677704Y-81028741D01*
X139739914Y-81057815D01*
X139785659Y-81081963D01*
X139809187Y-81102913D01*
X139816104Y-81125747D01*
X139816114Y-81126877D01*
X139804701Y-81166212D01*
X139770908Y-81187462D01*
X139719191Y-81190539D01*
X139681939Y-81190006D01*
X139662297Y-81200735D01*
X139650048Y-81226505D01*
X139642998Y-81259337D01*
X139653158Y-81277966D01*
X139656983Y-81280632D01*
X139692999Y-81291340D01*
X139743434Y-81292856D01*
X139795374Y-81285759D01*
X139832178Y-81272788D01*
X139883062Y-81229585D01*
X139911986Y-81169446D01*
X139917714Y-81122462D01*
X139913343Y-81080082D01*
X139897525Y-81045488D01*
X139866203Y-81014763D01*
X139815322Y-80983990D01*
X139740824Y-80949252D01*
X139736286Y-80947288D01*
X139669179Y-80916287D01*
X139627768Y-80890862D01*
X139610019Y-80868014D01*
X139613893Y-80844745D01*
X139637357Y-80818056D01*
X139644373Y-80811914D01*
X139691370Y-80788100D01*
X139740067Y-80789103D01*
X139782478Y-80812451D01*
X139810616Y-80855675D01*
X139813231Y-80864160D01*
X139838692Y-80905308D01*
X139870999Y-80925128D01*
X139917714Y-80944770D01*
X139917714Y-80893950D01*
X139903504Y-80820082D01*
X139861325Y-80752327D01*
X139839376Y-80729661D01*
X139789483Y-80700569D01*
X139726033Y-80687400D01*
X139660256Y-80690968D01*
G36*
X139170074Y-80689755D02*
X139104142Y-80714084D01*
X139050727Y-80757117D01*
X139029836Y-80787409D01*
X139007061Y-80842994D01*
X139007534Y-80883186D01*
X139031438Y-80910217D01*
X139040283Y-80914813D01*
X139078470Y-80929144D01*
X139097972Y-80925472D01*
X139104578Y-80901407D01*
X139104914Y-80888114D01*
X139117008Y-80839210D01*
X139148529Y-80804999D01*
X139192341Y-80788476D01*
X139241305Y-80792634D01*
X139281106Y-80814227D01*
X139294550Y-80826544D01*
X139304079Y-80841487D01*
X139310515Y-80864075D01*
X139314683Y-80899328D01*
X139317403Y-80952266D01*
X139319498Y-81027907D01*
X139320040Y-81051857D01*
X139322019Y-81133790D01*
X139324269Y-81191455D01*
X139327643Y-81229608D01*
X139332994Y-81253004D01*
X139341176Y-81266398D01*
X139353041Y-81274545D01*
X139360638Y-81278144D01*
X139392898Y-81290452D01*
X139411889Y-81294514D01*
X139418164Y-81280948D01*
X139421994Y-81239934D01*
X139423400Y-81170999D01*
X139422402Y-81073669D01*
X139422092Y-81058657D01*
X139419899Y-80969859D01*
X139417307Y-80905019D01*
X139413618Y-80859067D01*
X139408136Y-80826935D01*
X139400165Y-80803553D01*
X139389007Y-80783852D01*
X139383170Y-80775410D01*
X139349704Y-80738057D01*
X139312273Y-80709003D01*
X139307691Y-80706467D01*
X139240574Y-80686443D01*
X139170074Y-80689755D01*
X139170074Y-80689755D01*
G37*
X139170074Y-80689755D02*
X139104142Y-80714084D01*
X139050727Y-80757117D01*
X139029836Y-80787409D01*
X139007061Y-80842994D01*
X139007534Y-80883186D01*
X139031438Y-80910217D01*
X139040283Y-80914813D01*
X139078470Y-80929144D01*
X139097972Y-80925472D01*
X139104578Y-80901407D01*
X139104914Y-80888114D01*
X139117008Y-80839210D01*
X139148529Y-80804999D01*
X139192341Y-80788476D01*
X139241305Y-80792634D01*
X139281106Y-80814227D01*
X139294550Y-80826544D01*
X139304079Y-80841487D01*
X139310515Y-80864075D01*
X139314683Y-80899328D01*
X139317403Y-80952266D01*
X139319498Y-81027907D01*
X139320040Y-81051857D01*
X139322019Y-81133790D01*
X139324269Y-81191455D01*
X139327643Y-81229608D01*
X139332994Y-81253004D01*
X139341176Y-81266398D01*
X139353041Y-81274545D01*
X139360638Y-81278144D01*
X139392898Y-81290452D01*
X139411889Y-81294514D01*
X139418164Y-81280948D01*
X139421994Y-81239934D01*
X139423400Y-81170999D01*
X139422402Y-81073669D01*
X139422092Y-81058657D01*
X139419899Y-80969859D01*
X139417307Y-80905019D01*
X139413618Y-80859067D01*
X139408136Y-80826935D01*
X139400165Y-80803553D01*
X139389007Y-80783852D01*
X139383170Y-80775410D01*
X139349704Y-80738057D01*
X139312273Y-80709003D01*
X139307691Y-80706467D01*
X139240574Y-80686443D01*
X139170074Y-80689755D01*
G36*
X138509883Y-80805358D02*
X138510067Y-80913837D01*
X138510781Y-80997287D01*
X138512325Y-81059704D01*
X138514999Y-81105085D01*
X138519106Y-81137429D01*
X138524945Y-81160733D01*
X138532818Y-81178995D01*
X138538779Y-81189418D01*
X138588145Y-81245945D01*
X138650736Y-81281377D01*
X138719987Y-81294090D01*
X138789332Y-81282463D01*
X138830625Y-81261568D01*
X138873975Y-81225422D01*
X138903519Y-81181276D01*
X138921345Y-81123462D01*
X138929537Y-81046313D01*
X138930698Y-80989714D01*
X138930542Y-80985647D01*
X138829143Y-80985647D01*
X138828524Y-81050550D01*
X138825686Y-81093514D01*
X138819160Y-81121622D01*
X138807477Y-81141953D01*
X138793517Y-81157288D01*
X138746635Y-81186890D01*
X138696299Y-81189419D01*
X138648724Y-81164705D01*
X138645021Y-81161356D01*
X138629217Y-81143935D01*
X138619307Y-81123209D01*
X138613942Y-81092362D01*
X138611772Y-81044577D01*
X138611429Y-80991748D01*
X138612173Y-80925381D01*
X138615252Y-80881106D01*
X138621939Y-80852009D01*
X138633504Y-80831173D01*
X138642987Y-80820107D01*
X138687040Y-80792198D01*
X138737776Y-80788843D01*
X138786204Y-80810159D01*
X138795550Y-80818073D01*
X138811460Y-80835647D01*
X138821390Y-80856587D01*
X138826722Y-80887782D01*
X138828837Y-80936122D01*
X138829143Y-80985647D01*
X138930542Y-80985647D01*
X138927190Y-80898568D01*
X138915274Y-80830086D01*
X138892865Y-80778600D01*
X138857876Y-80738443D01*
X138830625Y-80717861D01*
X138781093Y-80695625D01*
X138723684Y-80685304D01*
X138670318Y-80688067D01*
X138640457Y-80699212D01*
X138628739Y-80702383D01*
X138620963Y-80690557D01*
X138615535Y-80658866D01*
X138611429Y-80610593D01*
X138606933Y-80556829D01*
X138600687Y-80524482D01*
X138589324Y-80505985D01*
X138569472Y-80493770D01*
X138557000Y-80488362D01*
X138509829Y-80468601D01*
X138509883Y-80805358D01*
X138509883Y-80805358D01*
G37*
X138509883Y-80805358D02*
X138510067Y-80913837D01*
X138510781Y-80997287D01*
X138512325Y-81059704D01*
X138514999Y-81105085D01*
X138519106Y-81137429D01*
X138524945Y-81160733D01*
X138532818Y-81178995D01*
X138538779Y-81189418D01*
X138588145Y-81245945D01*
X138650736Y-81281377D01*
X138719987Y-81294090D01*
X138789332Y-81282463D01*
X138830625Y-81261568D01*
X138873975Y-81225422D01*
X138903519Y-81181276D01*
X138921345Y-81123462D01*
X138929537Y-81046313D01*
X138930698Y-80989714D01*
X138930542Y-80985647D01*
X138829143Y-80985647D01*
X138828524Y-81050550D01*
X138825686Y-81093514D01*
X138819160Y-81121622D01*
X138807477Y-81141953D01*
X138793517Y-81157288D01*
X138746635Y-81186890D01*
X138696299Y-81189419D01*
X138648724Y-81164705D01*
X138645021Y-81161356D01*
X138629217Y-81143935D01*
X138619307Y-81123209D01*
X138613942Y-81092362D01*
X138611772Y-81044577D01*
X138611429Y-80991748D01*
X138612173Y-80925381D01*
X138615252Y-80881106D01*
X138621939Y-80852009D01*
X138633504Y-80831173D01*
X138642987Y-80820107D01*
X138687040Y-80792198D01*
X138737776Y-80788843D01*
X138786204Y-80810159D01*
X138795550Y-80818073D01*
X138811460Y-80835647D01*
X138821390Y-80856587D01*
X138826722Y-80887782D01*
X138828837Y-80936122D01*
X138829143Y-80985647D01*
X138930542Y-80985647D01*
X138927190Y-80898568D01*
X138915274Y-80830086D01*
X138892865Y-80778600D01*
X138857876Y-80738443D01*
X138830625Y-80717861D01*
X138781093Y-80695625D01*
X138723684Y-80685304D01*
X138670318Y-80688067D01*
X138640457Y-80699212D01*
X138628739Y-80702383D01*
X138620963Y-80690557D01*
X138615535Y-80658866D01*
X138611429Y-80610593D01*
X138606933Y-80556829D01*
X138600687Y-80524482D01*
X138589324Y-80505985D01*
X138569472Y-80493770D01*
X138557000Y-80488362D01*
X138509829Y-80468601D01*
X138509883Y-80805358D01*
G36*
X137920167Y-80698663D02*
X137917952Y-80736850D01*
X137916216Y-80794886D01*
X137915101Y-80868180D01*
X137914743Y-80945055D01*
X137914743Y-81205196D01*
X137960674Y-81251127D01*
X137992325Y-81279429D01*
X138020110Y-81290893D01*
X138058085Y-81290168D01*
X138073160Y-81288321D01*
X138120274Y-81282948D01*
X138159244Y-81279869D01*
X138168743Y-81279585D01*
X138200767Y-81281445D01*
X138246568Y-81286114D01*
X138264326Y-81288321D01*
X138307943Y-81291735D01*
X138337255Y-81284320D01*
X138366320Y-81261427D01*
X138376812Y-81251127D01*
X138422743Y-81205196D01*
X138422743Y-80718602D01*
X138385774Y-80701758D01*
X138353941Y-80689282D01*
X138335317Y-80684914D01*
X138330542Y-80698718D01*
X138326079Y-80737286D01*
X138322225Y-80796356D01*
X138319278Y-80871663D01*
X138317857Y-80935286D01*
X138313886Y-81185657D01*
X138279241Y-81190556D01*
X138247732Y-81187131D01*
X138232292Y-81176041D01*
X138227977Y-81155308D01*
X138224292Y-81111145D01*
X138221531Y-81049146D01*
X138219988Y-80974909D01*
X138219765Y-80936706D01*
X138219543Y-80716783D01*
X138173834Y-80700849D01*
X138141482Y-80690015D01*
X138123885Y-80684962D01*
X138123377Y-80684914D01*
X138121612Y-80698648D01*
X138119671Y-80736730D01*
X138117718Y-80794482D01*
X138115916Y-80867227D01*
X138114657Y-80935286D01*
X138110686Y-81185657D01*
X138023600Y-81185657D01*
X138019604Y-80957240D01*
X138015608Y-80728822D01*
X137973153Y-80706868D01*
X137941808Y-80691793D01*
X137923256Y-80684951D01*
X137922721Y-80684914D01*
X137920167Y-80698663D01*
X137920167Y-80698663D01*
G37*
X137920167Y-80698663D02*
X137917952Y-80736850D01*
X137916216Y-80794886D01*
X137915101Y-80868180D01*
X137914743Y-80945055D01*
X137914743Y-81205196D01*
X137960674Y-81251127D01*
X137992325Y-81279429D01*
X138020110Y-81290893D01*
X138058085Y-81290168D01*
X138073160Y-81288321D01*
X138120274Y-81282948D01*
X138159244Y-81279869D01*
X138168743Y-81279585D01*
X138200767Y-81281445D01*
X138246568Y-81286114D01*
X138264326Y-81288321D01*
X138307943Y-81291735D01*
X138337255Y-81284320D01*
X138366320Y-81261427D01*
X138376812Y-81251127D01*
X138422743Y-81205196D01*
X138422743Y-80718602D01*
X138385774Y-80701758D01*
X138353941Y-80689282D01*
X138335317Y-80684914D01*
X138330542Y-80698718D01*
X138326079Y-80737286D01*
X138322225Y-80796356D01*
X138319278Y-80871663D01*
X138317857Y-80935286D01*
X138313886Y-81185657D01*
X138279241Y-81190556D01*
X138247732Y-81187131D01*
X138232292Y-81176041D01*
X138227977Y-81155308D01*
X138224292Y-81111145D01*
X138221531Y-81049146D01*
X138219988Y-80974909D01*
X138219765Y-80936706D01*
X138219543Y-80716783D01*
X138173834Y-80700849D01*
X138141482Y-80690015D01*
X138123885Y-80684962D01*
X138123377Y-80684914D01*
X138121612Y-80698648D01*
X138119671Y-80736730D01*
X138117718Y-80794482D01*
X138115916Y-80867227D01*
X138114657Y-80935286D01*
X138110686Y-81185657D01*
X138023600Y-81185657D01*
X138019604Y-80957240D01*
X138015608Y-80728822D01*
X137973153Y-80706868D01*
X137941808Y-80691793D01*
X137923256Y-80684951D01*
X137922721Y-80684914D01*
X137920167Y-80698663D01*
G36*
X137555124Y-80696335D02*
X137513333Y-80715344D01*
X137480531Y-80738378D01*
X137456497Y-80764133D01*
X137439903Y-80797358D01*
X137429423Y-80842800D01*
X137423729Y-80905207D01*
X137421493Y-80989327D01*
X137421257Y-81044721D01*
X137421257Y-81260826D01*
X137458226Y-81277670D01*
X137487344Y-81289981D01*
X137501769Y-81294514D01*
X137504528Y-81281025D01*
X137506718Y-81244653D01*
X137508058Y-81191542D01*
X137508343Y-81149372D01*
X137509566Y-81088447D01*
X137512864Y-81040115D01*
X137517679Y-81010518D01*
X137521504Y-81004229D01*
X137547217Y-81010652D01*
X137587582Y-81027125D01*
X137634321Y-81049458D01*
X137679155Y-81073457D01*
X137713807Y-81094930D01*
X137729998Y-81109685D01*
X137730062Y-81109845D01*
X137728670Y-81137152D01*
X137716182Y-81163219D01*
X137694257Y-81184392D01*
X137662257Y-81191474D01*
X137634908Y-81190649D01*
X137596174Y-81190042D01*
X137575842Y-81199116D01*
X137563631Y-81223092D01*
X137562091Y-81227613D01*
X137556797Y-81261806D01*
X137570953Y-81282568D01*
X137607852Y-81292462D01*
X137647711Y-81294292D01*
X137719438Y-81280727D01*
X137756568Y-81261355D01*
X137802424Y-81215845D01*
X137826744Y-81159983D01*
X137828927Y-81100957D01*
X137808371Y-81045953D01*
X137777451Y-81011486D01*
X137746580Y-80992189D01*
X137698058Y-80967759D01*
X137641515Y-80942985D01*
X137632090Y-80939199D01*
X137569981Y-80911791D01*
X137534178Y-80887634D01*
X137522663Y-80863619D01*
X137533420Y-80836635D01*
X137551886Y-80815543D01*
X137595531Y-80789572D01*
X137643554Y-80787624D01*
X137687594Y-80807637D01*
X137719291Y-80847551D01*
X137723451Y-80857848D01*
X137747673Y-80895724D01*
X137783035Y-80923842D01*
X137827657Y-80946917D01*
X137827657Y-80881485D01*
X137825031Y-80841506D01*
X137813770Y-80809997D01*
X137788801Y-80776378D01*
X137764831Y-80750484D01*
X137727559Y-80713817D01*
X137698599Y-80694121D01*
X137667495Y-80686220D01*
X137632287Y-80684914D01*
X137555124Y-80696335D01*
X137555124Y-80696335D01*
G37*
X137555124Y-80696335D02*
X137513333Y-80715344D01*
X137480531Y-80738378D01*
X137456497Y-80764133D01*
X137439903Y-80797358D01*
X137429423Y-80842800D01*
X137423729Y-80905207D01*
X137421493Y-80989327D01*
X137421257Y-81044721D01*
X137421257Y-81260826D01*
X137458226Y-81277670D01*
X137487344Y-81289981D01*
X137501769Y-81294514D01*
X137504528Y-81281025D01*
X137506718Y-81244653D01*
X137508058Y-81191542D01*
X137508343Y-81149372D01*
X137509566Y-81088447D01*
X137512864Y-81040115D01*
X137517679Y-81010518D01*
X137521504Y-81004229D01*
X137547217Y-81010652D01*
X137587582Y-81027125D01*
X137634321Y-81049458D01*
X137679155Y-81073457D01*
X137713807Y-81094930D01*
X137729998Y-81109685D01*
X137730062Y-81109845D01*
X137728670Y-81137152D01*
X137716182Y-81163219D01*
X137694257Y-81184392D01*
X137662257Y-81191474D01*
X137634908Y-81190649D01*
X137596174Y-81190042D01*
X137575842Y-81199116D01*
X137563631Y-81223092D01*
X137562091Y-81227613D01*
X137556797Y-81261806D01*
X137570953Y-81282568D01*
X137607852Y-81292462D01*
X137647711Y-81294292D01*
X137719438Y-81280727D01*
X137756568Y-81261355D01*
X137802424Y-81215845D01*
X137826744Y-81159983D01*
X137828927Y-81100957D01*
X137808371Y-81045953D01*
X137777451Y-81011486D01*
X137746580Y-80992189D01*
X137698058Y-80967759D01*
X137641515Y-80942985D01*
X137632090Y-80939199D01*
X137569981Y-80911791D01*
X137534178Y-80887634D01*
X137522663Y-80863619D01*
X137533420Y-80836635D01*
X137551886Y-80815543D01*
X137595531Y-80789572D01*
X137643554Y-80787624D01*
X137687594Y-80807637D01*
X137719291Y-80847551D01*
X137723451Y-80857848D01*
X137747673Y-80895724D01*
X137783035Y-80923842D01*
X137827657Y-80946917D01*
X137827657Y-80881485D01*
X137825031Y-80841506D01*
X137813770Y-80809997D01*
X137788801Y-80776378D01*
X137764831Y-80750484D01*
X137727559Y-80713817D01*
X137698599Y-80694121D01*
X137667495Y-80686220D01*
X137632287Y-80684914D01*
X137555124Y-80696335D01*
G36*
X137047400Y-80698752D02*
X137030052Y-80706334D01*
X136988644Y-80739128D01*
X136953235Y-80786547D01*
X136931336Y-80837151D01*
X136927771Y-80862098D01*
X136939721Y-80896927D01*
X136965933Y-80915357D01*
X136994036Y-80926516D01*
X137006905Y-80928572D01*
X137013171Y-80913649D01*
X137025544Y-80881175D01*
X137030972Y-80866502D01*
X137061410Y-80815744D01*
X137105480Y-80790427D01*
X137161990Y-80791206D01*
X137166175Y-80792203D01*
X137196345Y-80806507D01*
X137218524Y-80834393D01*
X137233673Y-80879287D01*
X137242750Y-80944615D01*
X137246714Y-81033804D01*
X137247086Y-81081261D01*
X137247270Y-81156071D01*
X137248478Y-81207069D01*
X137251691Y-81239471D01*
X137257891Y-81258495D01*
X137268060Y-81269356D01*
X137283181Y-81277272D01*
X137284054Y-81277670D01*
X137313172Y-81289981D01*
X137327597Y-81294514D01*
X137329814Y-81280809D01*
X137331711Y-81242925D01*
X137333153Y-81185715D01*
X137334002Y-81114027D01*
X137334171Y-81061565D01*
X137333308Y-80960047D01*
X137329930Y-80883032D01*
X137322858Y-80826023D01*
X137310912Y-80784526D01*
X137292910Y-80754043D01*
X137267673Y-80730080D01*
X137242753Y-80713355D01*
X137182829Y-80691097D01*
X137113089Y-80686076D01*
X137047400Y-80698752D01*
X137047400Y-80698752D01*
G37*
X137047400Y-80698752D02*
X137030052Y-80706334D01*
X136988644Y-80739128D01*
X136953235Y-80786547D01*
X136931336Y-80837151D01*
X136927771Y-80862098D01*
X136939721Y-80896927D01*
X136965933Y-80915357D01*
X136994036Y-80926516D01*
X137006905Y-80928572D01*
X137013171Y-80913649D01*
X137025544Y-80881175D01*
X137030972Y-80866502D01*
X137061410Y-80815744D01*
X137105480Y-80790427D01*
X137161990Y-80791206D01*
X137166175Y-80792203D01*
X137196345Y-80806507D01*
X137218524Y-80834393D01*
X137233673Y-80879287D01*
X137242750Y-80944615D01*
X137246714Y-81033804D01*
X137247086Y-81081261D01*
X137247270Y-81156071D01*
X137248478Y-81207069D01*
X137251691Y-81239471D01*
X137257891Y-81258495D01*
X137268060Y-81269356D01*
X137283181Y-81277272D01*
X137284054Y-81277670D01*
X137313172Y-81289981D01*
X137327597Y-81294514D01*
X137329814Y-81280809D01*
X137331711Y-81242925D01*
X137333153Y-81185715D01*
X137334002Y-81114027D01*
X137334171Y-81061565D01*
X137333308Y-80960047D01*
X137329930Y-80883032D01*
X137322858Y-80826023D01*
X137310912Y-80784526D01*
X137292910Y-80754043D01*
X137267673Y-80730080D01*
X137242753Y-80713355D01*
X137182829Y-80691097D01*
X137113089Y-80686076D01*
X137047400Y-80698752D01*
G36*
X136546405Y-80706966D02*
X136488979Y-80744497D01*
X136461281Y-80778096D01*
X136439338Y-80839064D01*
X136437595Y-80887308D01*
X136441543Y-80951816D01*
X136590314Y-81016934D01*
X136662651Y-81050202D01*
X136709916Y-81076964D01*
X136734493Y-81100144D01*
X136738763Y-81122667D01*
X136725111Y-81147455D01*
X136710057Y-81163886D01*
X136666254Y-81190235D01*
X136618611Y-81192081D01*
X136574855Y-81171546D01*
X136542711Y-81130752D01*
X136536962Y-81116347D01*
X136509424Y-81071356D01*
X136477742Y-81052182D01*
X136434286Y-81035779D01*
X136434286Y-81097966D01*
X136438128Y-81140283D01*
X136453177Y-81175969D01*
X136484720Y-81216943D01*
X136489408Y-81222267D01*
X136524494Y-81258720D01*
X136554653Y-81278283D01*
X136592385Y-81287283D01*
X136623665Y-81290230D01*
X136679615Y-81290965D01*
X136719445Y-81281660D01*
X136744292Y-81267846D01*
X136783344Y-81237467D01*
X136810375Y-81204613D01*
X136827483Y-81163294D01*
X136836762Y-81107521D01*
X136840307Y-81031305D01*
X136840590Y-80992622D01*
X136839628Y-80946247D01*
X136751993Y-80946247D01*
X136750977Y-80971126D01*
X136748444Y-80975200D01*
X136731726Y-80969665D01*
X136695751Y-80955017D01*
X136647669Y-80934190D01*
X136637614Y-80929714D01*
X136576848Y-80898814D01*
X136543368Y-80871657D01*
X136536010Y-80846220D01*
X136553609Y-80820481D01*
X136568144Y-80809109D01*
X136620590Y-80786364D01*
X136669678Y-80790122D01*
X136710773Y-80817884D01*
X136739242Y-80867152D01*
X136748369Y-80906257D01*
X136751993Y-80946247D01*
X136839628Y-80946247D01*
X136838715Y-80902249D01*
X136831804Y-80835384D01*
X136818116Y-80786695D01*
X136795904Y-80750849D01*
X136763426Y-80722513D01*
X136749267Y-80713355D01*
X136684947Y-80689507D01*
X136614527Y-80688006D01*
X136546405Y-80706966D01*
X136546405Y-80706966D01*
G37*
X136546405Y-80706966D02*
X136488979Y-80744497D01*
X136461281Y-80778096D01*
X136439338Y-80839064D01*
X136437595Y-80887308D01*
X136441543Y-80951816D01*
X136590314Y-81016934D01*
X136662651Y-81050202D01*
X136709916Y-81076964D01*
X136734493Y-81100144D01*
X136738763Y-81122667D01*
X136725111Y-81147455D01*
X136710057Y-81163886D01*
X136666254Y-81190235D01*
X136618611Y-81192081D01*
X136574855Y-81171546D01*
X136542711Y-81130752D01*
X136536962Y-81116347D01*
X136509424Y-81071356D01*
X136477742Y-81052182D01*
X136434286Y-81035779D01*
X136434286Y-81097966D01*
X136438128Y-81140283D01*
X136453177Y-81175969D01*
X136484720Y-81216943D01*
X136489408Y-81222267D01*
X136524494Y-81258720D01*
X136554653Y-81278283D01*
X136592385Y-81287283D01*
X136623665Y-81290230D01*
X136679615Y-81290965D01*
X136719445Y-81281660D01*
X136744292Y-81267846D01*
X136783344Y-81237467D01*
X136810375Y-81204613D01*
X136827483Y-81163294D01*
X136836762Y-81107521D01*
X136840307Y-81031305D01*
X136840590Y-80992622D01*
X136839628Y-80946247D01*
X136751993Y-80946247D01*
X136750977Y-80971126D01*
X136748444Y-80975200D01*
X136731726Y-80969665D01*
X136695751Y-80955017D01*
X136647669Y-80934190D01*
X136637614Y-80929714D01*
X136576848Y-80898814D01*
X136543368Y-80871657D01*
X136536010Y-80846220D01*
X136553609Y-80820481D01*
X136568144Y-80809109D01*
X136620590Y-80786364D01*
X136669678Y-80790122D01*
X136710773Y-80817884D01*
X136739242Y-80867152D01*
X136748369Y-80906257D01*
X136751993Y-80946247D01*
X136839628Y-80946247D01*
X136838715Y-80902249D01*
X136831804Y-80835384D01*
X136818116Y-80786695D01*
X136795904Y-80750849D01*
X136763426Y-80722513D01*
X136749267Y-80713355D01*
X136684947Y-80689507D01*
X136614527Y-80688006D01*
X136546405Y-80706966D01*
G36*
X139596090Y-75982348D02*
X139517546Y-75982778D01*
X139460702Y-75983942D01*
X139421895Y-75986207D01*
X139397462Y-75989940D01*
X139383738Y-75995506D01*
X139377060Y-76003273D01*
X139373764Y-76013605D01*
X139373444Y-76014943D01*
X139368438Y-76039079D01*
X139359171Y-76086701D01*
X139346608Y-76152741D01*
X139331713Y-76232128D01*
X139315449Y-76319796D01*
X139314881Y-76322875D01*
X139298590Y-76408789D01*
X139283348Y-76484696D01*
X139270139Y-76546045D01*
X139259946Y-76588282D01*
X139253752Y-76606855D01*
X139253457Y-76607184D01*
X139235212Y-76616253D01*
X139197595Y-76631367D01*
X139148729Y-76649262D01*
X139148457Y-76649358D01*
X139086907Y-76672493D01*
X139014343Y-76701965D01*
X138945943Y-76731597D01*
X138942706Y-76733062D01*
X138831298Y-76783626D01*
X138584601Y-76615160D01*
X138508923Y-76563803D01*
X138440369Y-76517889D01*
X138382912Y-76480030D01*
X138340524Y-76452837D01*
X138317175Y-76438921D01*
X138314958Y-76437889D01*
X138297990Y-76442484D01*
X138266299Y-76464655D01*
X138218648Y-76505447D01*
X138153802Y-76565905D01*
X138087603Y-76630227D01*
X138023786Y-76693612D01*
X137966671Y-76751451D01*
X137919695Y-76800175D01*
X137886297Y-76836210D01*
X137869915Y-76855984D01*
X137869306Y-76857002D01*
X137867495Y-76870572D01*
X137874317Y-76892733D01*
X137891460Y-76926478D01*
X137920607Y-76974800D01*
X137963445Y-77040692D01*
X138020552Y-77125517D01*
X138071234Y-77200177D01*
X138116539Y-77267140D01*
X138153850Y-77322516D01*
X138180548Y-77362420D01*
X138194015Y-77382962D01*
X138194863Y-77384356D01*
X138193219Y-77404038D01*
X138180755Y-77442293D01*
X138159952Y-77491889D01*
X138152538Y-77507728D01*
X138120186Y-77578290D01*
X138085672Y-77658353D01*
X138057635Y-77727629D01*
X138037432Y-77779045D01*
X138021385Y-77818119D01*
X138012112Y-77838541D01*
X138010959Y-77840114D01*
X137993904Y-77842721D01*
X137953702Y-77849863D01*
X137895698Y-77860523D01*
X137825237Y-77873685D01*
X137747665Y-77888333D01*
X137668328Y-77903449D01*
X137592569Y-77918018D01*
X137525736Y-77931022D01*
X137473172Y-77941445D01*
X137440224Y-77948270D01*
X137432143Y-77950199D01*
X137423795Y-77954962D01*
X137417494Y-77965718D01*
X137412955Y-77986098D01*
X137409896Y-78019734D01*
X137408033Y-78070255D01*
X137407082Y-78141292D01*
X137406760Y-78236476D01*
X137406743Y-78275492D01*
X137406743Y-78592799D01*
X137482943Y-78607839D01*
X137525337Y-78615995D01*
X137588600Y-78627899D01*
X137665038Y-78642116D01*
X137746957Y-78657210D01*
X137769600Y-78661355D01*
X137845194Y-78676053D01*
X137911047Y-78690505D01*
X137961634Y-78703375D01*
X137991426Y-78713322D01*
X137996388Y-78716287D01*
X138008574Y-78737283D01*
X138026047Y-78777967D01*
X138045423Y-78830322D01*
X138049266Y-78841600D01*
X138074661Y-78911523D01*
X138106183Y-78990418D01*
X138137031Y-79061266D01*
X138137183Y-79061595D01*
X138188553Y-79172733D01*
X138019601Y-79421253D01*
X137850648Y-79669772D01*
X138067571Y-79887058D01*
X138133181Y-79951726D01*
X138193021Y-80008733D01*
X138243733Y-80055033D01*
X138281954Y-80087584D01*
X138304325Y-80103343D01*
X138307534Y-80104343D01*
X138326374Y-80096469D01*
X138364820Y-80074578D01*
X138418670Y-80041267D01*
X138483724Y-79999131D01*
X138554060Y-79951943D01*
X138625445Y-79903810D01*
X138689092Y-79861928D01*
X138740959Y-79828871D01*
X138777005Y-79807218D01*
X138793133Y-79799543D01*
X138812811Y-79806037D01*
X138850125Y-79823150D01*
X138897379Y-79847326D01*
X138902388Y-79850013D01*
X138966023Y-79881927D01*
X139009659Y-79897579D01*
X139036798Y-79897745D01*
X139050943Y-79883204D01*
X139051025Y-79883000D01*
X139058095Y-79865779D01*
X139074958Y-79824899D01*
X139100305Y-79763525D01*
X139132829Y-79684819D01*
X139171222Y-79591947D01*
X139214178Y-79488072D01*
X139255778Y-79387502D01*
X139301496Y-79276516D01*
X139343474Y-79173703D01*
X139380452Y-79082215D01*
X139411173Y-79005201D01*
X139434378Y-78945815D01*
X139448810Y-78907209D01*
X139453257Y-78892800D01*
X139442104Y-78876272D01*
X139412931Y-78849930D01*
X139374029Y-78820887D01*
X139263243Y-78729039D01*
X139176649Y-78623759D01*
X139115284Y-78507266D01*
X139080185Y-78381776D01*
X139072392Y-78249507D01*
X139078057Y-78188457D01*
X139108922Y-78061795D01*
X139162080Y-77949941D01*
X139234233Y-77854001D01*
X139322083Y-77775076D01*
X139422335Y-77714270D01*
X139531690Y-77672687D01*
X139646853Y-77651428D01*
X139764525Y-77651599D01*
X139881410Y-77674301D01*
X139994211Y-77720638D01*
X140099631Y-77791713D01*
X140143632Y-77831911D01*
X140228021Y-77935129D01*
X140286778Y-78047925D01*
X140320296Y-78167010D01*
X140328965Y-78289095D01*
X140313177Y-78410893D01*
X140273322Y-78529116D01*
X140209793Y-78640475D01*
X140122979Y-78741684D01*
X140025971Y-78820887D01*
X139985563Y-78851162D01*
X139957018Y-78877219D01*
X139946743Y-78892825D01*
X139952123Y-78909843D01*
X139967425Y-78950500D01*
X139991388Y-79011642D01*
X140022756Y-79090119D01*
X140060268Y-79182780D01*
X140102667Y-79286472D01*
X140144337Y-79387526D01*
X140190310Y-79498607D01*
X140232893Y-79601541D01*
X140270779Y-79693165D01*
X140302660Y-79770316D01*
X140327229Y-79829831D01*
X140343180Y-79868544D01*
X140349090Y-79883000D01*
X140363052Y-79897685D01*
X140390060Y-79897642D01*
X140433587Y-79882099D01*
X140497110Y-79850284D01*
X140497612Y-79850013D01*
X140545440Y-79825323D01*
X140584103Y-79807338D01*
X140605905Y-79799614D01*
X140606867Y-79799543D01*
X140623279Y-79807378D01*
X140659513Y-79829165D01*
X140711526Y-79862328D01*
X140775275Y-79904291D01*
X140845940Y-79951943D01*
X140917884Y-80000191D01*
X140982726Y-80042151D01*
X141036265Y-80075227D01*
X141074303Y-80096821D01*
X141092467Y-80104343D01*
X141109192Y-80094457D01*
X141142820Y-80066826D01*
X141189990Y-80024495D01*
X141247342Y-79970505D01*
X141311516Y-79907899D01*
X141332503Y-79886983D01*
X141549501Y-79669623D01*
X141384332Y-79427220D01*
X141334136Y-79352781D01*
X141290081Y-79285972D01*
X141254638Y-79230665D01*
X141230281Y-79190729D01*
X141219478Y-79170036D01*
X141219162Y-79168563D01*
X141224857Y-79149058D01*
X141240174Y-79109822D01*
X141262463Y-79057430D01*
X141278107Y-79022355D01*
X141307359Y-78955201D01*
X141334906Y-78887358D01*
X141356263Y-78830034D01*
X141362065Y-78812572D01*
X141378548Y-78765938D01*
X141394660Y-78729905D01*
X141403510Y-78716287D01*
X141423040Y-78707952D01*
X141465666Y-78696137D01*
X141525855Y-78682181D01*
X141598078Y-78667422D01*
X141630400Y-78661355D01*
X141712478Y-78646273D01*
X141791205Y-78631669D01*
X141858891Y-78618980D01*
X141907840Y-78609642D01*
X141917057Y-78607839D01*
X141993257Y-78592799D01*
X141993257Y-78275492D01*
X141993086Y-78171154D01*
X141992384Y-78092213D01*
X141990866Y-78035038D01*
X141988251Y-77995999D01*
X141984254Y-77971465D01*
X141978591Y-77957805D01*
X141970980Y-77951389D01*
X141967857Y-77950199D01*
X141949022Y-77945980D01*
X141907412Y-77937562D01*
X141848370Y-77925961D01*
X141777243Y-77912195D01*
X141699375Y-77897280D01*
X141620113Y-77882232D01*
X141544802Y-77868069D01*
X141478787Y-77855806D01*
X141427413Y-77846461D01*
X141396025Y-77841050D01*
X141389041Y-77840114D01*
X141382715Y-77827596D01*
X141368710Y-77794246D01*
X141349645Y-77746377D01*
X141342366Y-77727629D01*
X141313004Y-77655195D01*
X141278429Y-77575170D01*
X141247463Y-77507728D01*
X141224677Y-77456159D01*
X141209518Y-77413785D01*
X141204458Y-77387834D01*
X141205264Y-77384356D01*
X141215959Y-77367936D01*
X141240380Y-77331417D01*
X141275905Y-77278687D01*
X141319913Y-77213635D01*
X141369783Y-77140151D01*
X141379644Y-77125645D01*
X141437508Y-77039704D01*
X141480044Y-76974261D01*
X141508946Y-76926304D01*
X141525910Y-76892820D01*
X141532633Y-76870795D01*
X141530810Y-76857217D01*
X141530764Y-76857131D01*
X141516414Y-76839297D01*
X141484677Y-76804817D01*
X141438990Y-76757268D01*
X141382796Y-76700222D01*
X141319532Y-76637255D01*
X141312398Y-76630227D01*
X141232670Y-76553020D01*
X141171143Y-76496330D01*
X141126579Y-76459110D01*
X141097743Y-76440315D01*
X141085042Y-76437889D01*
X141066506Y-76448471D01*
X141028039Y-76472916D01*
X140973614Y-76508612D01*
X140907202Y-76552947D01*
X140832775Y-76603311D01*
X140815399Y-76615160D01*
X140568703Y-76783626D01*
X140457294Y-76733062D01*
X140389543Y-76703595D01*
X140316817Y-76673959D01*
X140254297Y-76650330D01*
X140251543Y-76649358D01*
X140202640Y-76631457D01*
X140164943Y-76616320D01*
X140146575Y-76607210D01*
X140146544Y-76607184D01*
X140140715Y-76590717D01*
X140130808Y-76550219D01*
X140117805Y-76490242D01*
X140102691Y-76415340D01*
X140086448Y-76330064D01*
X140085119Y-76322875D01*
X140068825Y-76235014D01*
X140053867Y-76155260D01*
X140041209Y-76088681D01*
X140031814Y-76040347D01*
X140026646Y-76015325D01*
X140026556Y-76014943D01*
X140023411Y-76004299D01*
X140017296Y-75996262D01*
X140004547Y-75990467D01*
X139981500Y-75986547D01*
X139944491Y-75984135D01*
X139889856Y-75982865D01*
X139813933Y-75982371D01*
X139713056Y-75982286D01*
X139700000Y-75982286D01*
X139596090Y-75982348D01*
X139596090Y-75982348D01*
G37*
X139596090Y-75982348D02*
X139517546Y-75982778D01*
X139460702Y-75983942D01*
X139421895Y-75986207D01*
X139397462Y-75989940D01*
X139383738Y-75995506D01*
X139377060Y-76003273D01*
X139373764Y-76013605D01*
X139373444Y-76014943D01*
X139368438Y-76039079D01*
X139359171Y-76086701D01*
X139346608Y-76152741D01*
X139331713Y-76232128D01*
X139315449Y-76319796D01*
X139314881Y-76322875D01*
X139298590Y-76408789D01*
X139283348Y-76484696D01*
X139270139Y-76546045D01*
X139259946Y-76588282D01*
X139253752Y-76606855D01*
X139253457Y-76607184D01*
X139235212Y-76616253D01*
X139197595Y-76631367D01*
X139148729Y-76649262D01*
X139148457Y-76649358D01*
X139086907Y-76672493D01*
X139014343Y-76701965D01*
X138945943Y-76731597D01*
X138942706Y-76733062D01*
X138831298Y-76783626D01*
X138584601Y-76615160D01*
X138508923Y-76563803D01*
X138440369Y-76517889D01*
X138382912Y-76480030D01*
X138340524Y-76452837D01*
X138317175Y-76438921D01*
X138314958Y-76437889D01*
X138297990Y-76442484D01*
X138266299Y-76464655D01*
X138218648Y-76505447D01*
X138153802Y-76565905D01*
X138087603Y-76630227D01*
X138023786Y-76693612D01*
X137966671Y-76751451D01*
X137919695Y-76800175D01*
X137886297Y-76836210D01*
X137869915Y-76855984D01*
X137869306Y-76857002D01*
X137867495Y-76870572D01*
X137874317Y-76892733D01*
X137891460Y-76926478D01*
X137920607Y-76974800D01*
X137963445Y-77040692D01*
X138020552Y-77125517D01*
X138071234Y-77200177D01*
X138116539Y-77267140D01*
X138153850Y-77322516D01*
X138180548Y-77362420D01*
X138194015Y-77382962D01*
X138194863Y-77384356D01*
X138193219Y-77404038D01*
X138180755Y-77442293D01*
X138159952Y-77491889D01*
X138152538Y-77507728D01*
X138120186Y-77578290D01*
X138085672Y-77658353D01*
X138057635Y-77727629D01*
X138037432Y-77779045D01*
X138021385Y-77818119D01*
X138012112Y-77838541D01*
X138010959Y-77840114D01*
X137993904Y-77842721D01*
X137953702Y-77849863D01*
X137895698Y-77860523D01*
X137825237Y-77873685D01*
X137747665Y-77888333D01*
X137668328Y-77903449D01*
X137592569Y-77918018D01*
X137525736Y-77931022D01*
X137473172Y-77941445D01*
X137440224Y-77948270D01*
X137432143Y-77950199D01*
X137423795Y-77954962D01*
X137417494Y-77965718D01*
X137412955Y-77986098D01*
X137409896Y-78019734D01*
X137408033Y-78070255D01*
X137407082Y-78141292D01*
X137406760Y-78236476D01*
X137406743Y-78275492D01*
X137406743Y-78592799D01*
X137482943Y-78607839D01*
X137525337Y-78615995D01*
X137588600Y-78627899D01*
X137665038Y-78642116D01*
X137746957Y-78657210D01*
X137769600Y-78661355D01*
X137845194Y-78676053D01*
X137911047Y-78690505D01*
X137961634Y-78703375D01*
X137991426Y-78713322D01*
X137996388Y-78716287D01*
X138008574Y-78737283D01*
X138026047Y-78777967D01*
X138045423Y-78830322D01*
X138049266Y-78841600D01*
X138074661Y-78911523D01*
X138106183Y-78990418D01*
X138137031Y-79061266D01*
X138137183Y-79061595D01*
X138188553Y-79172733D01*
X138019601Y-79421253D01*
X137850648Y-79669772D01*
X138067571Y-79887058D01*
X138133181Y-79951726D01*
X138193021Y-80008733D01*
X138243733Y-80055033D01*
X138281954Y-80087584D01*
X138304325Y-80103343D01*
X138307534Y-80104343D01*
X138326374Y-80096469D01*
X138364820Y-80074578D01*
X138418670Y-80041267D01*
X138483724Y-79999131D01*
X138554060Y-79951943D01*
X138625445Y-79903810D01*
X138689092Y-79861928D01*
X138740959Y-79828871D01*
X138777005Y-79807218D01*
X138793133Y-79799543D01*
X138812811Y-79806037D01*
X138850125Y-79823150D01*
X138897379Y-79847326D01*
X138902388Y-79850013D01*
X138966023Y-79881927D01*
X139009659Y-79897579D01*
X139036798Y-79897745D01*
X139050943Y-79883204D01*
X139051025Y-79883000D01*
X139058095Y-79865779D01*
X139074958Y-79824899D01*
X139100305Y-79763525D01*
X139132829Y-79684819D01*
X139171222Y-79591947D01*
X139214178Y-79488072D01*
X139255778Y-79387502D01*
X139301496Y-79276516D01*
X139343474Y-79173703D01*
X139380452Y-79082215D01*
X139411173Y-79005201D01*
X139434378Y-78945815D01*
X139448810Y-78907209D01*
X139453257Y-78892800D01*
X139442104Y-78876272D01*
X139412931Y-78849930D01*
X139374029Y-78820887D01*
X139263243Y-78729039D01*
X139176649Y-78623759D01*
X139115284Y-78507266D01*
X139080185Y-78381776D01*
X139072392Y-78249507D01*
X139078057Y-78188457D01*
X139108922Y-78061795D01*
X139162080Y-77949941D01*
X139234233Y-77854001D01*
X139322083Y-77775076D01*
X139422335Y-77714270D01*
X139531690Y-77672687D01*
X139646853Y-77651428D01*
X139764525Y-77651599D01*
X139881410Y-77674301D01*
X139994211Y-77720638D01*
X140099631Y-77791713D01*
X140143632Y-77831911D01*
X140228021Y-77935129D01*
X140286778Y-78047925D01*
X140320296Y-78167010D01*
X140328965Y-78289095D01*
X140313177Y-78410893D01*
X140273322Y-78529116D01*
X140209793Y-78640475D01*
X140122979Y-78741684D01*
X140025971Y-78820887D01*
X139985563Y-78851162D01*
X139957018Y-78877219D01*
X139946743Y-78892825D01*
X139952123Y-78909843D01*
X139967425Y-78950500D01*
X139991388Y-79011642D01*
X140022756Y-79090119D01*
X140060268Y-79182780D01*
X140102667Y-79286472D01*
X140144337Y-79387526D01*
X140190310Y-79498607D01*
X140232893Y-79601541D01*
X140270779Y-79693165D01*
X140302660Y-79770316D01*
X140327229Y-79829831D01*
X140343180Y-79868544D01*
X140349090Y-79883000D01*
X140363052Y-79897685D01*
X140390060Y-79897642D01*
X140433587Y-79882099D01*
X140497110Y-79850284D01*
X140497612Y-79850013D01*
X140545440Y-79825323D01*
X140584103Y-79807338D01*
X140605905Y-79799614D01*
X140606867Y-79799543D01*
X140623279Y-79807378D01*
X140659513Y-79829165D01*
X140711526Y-79862328D01*
X140775275Y-79904291D01*
X140845940Y-79951943D01*
X140917884Y-80000191D01*
X140982726Y-80042151D01*
X141036265Y-80075227D01*
X141074303Y-80096821D01*
X141092467Y-80104343D01*
X141109192Y-80094457D01*
X141142820Y-80066826D01*
X141189990Y-80024495D01*
X141247342Y-79970505D01*
X141311516Y-79907899D01*
X141332503Y-79886983D01*
X141549501Y-79669623D01*
X141384332Y-79427220D01*
X141334136Y-79352781D01*
X141290081Y-79285972D01*
X141254638Y-79230665D01*
X141230281Y-79190729D01*
X141219478Y-79170036D01*
X141219162Y-79168563D01*
X141224857Y-79149058D01*
X141240174Y-79109822D01*
X141262463Y-79057430D01*
X141278107Y-79022355D01*
X141307359Y-78955201D01*
X141334906Y-78887358D01*
X141356263Y-78830034D01*
X141362065Y-78812572D01*
X141378548Y-78765938D01*
X141394660Y-78729905D01*
X141403510Y-78716287D01*
X141423040Y-78707952D01*
X141465666Y-78696137D01*
X141525855Y-78682181D01*
X141598078Y-78667422D01*
X141630400Y-78661355D01*
X141712478Y-78646273D01*
X141791205Y-78631669D01*
X141858891Y-78618980D01*
X141907840Y-78609642D01*
X141917057Y-78607839D01*
X141993257Y-78592799D01*
X141993257Y-78275492D01*
X141993086Y-78171154D01*
X141992384Y-78092213D01*
X141990866Y-78035038D01*
X141988251Y-77995999D01*
X141984254Y-77971465D01*
X141978591Y-77957805D01*
X141970980Y-77951389D01*
X141967857Y-77950199D01*
X141949022Y-77945980D01*
X141907412Y-77937562D01*
X141848370Y-77925961D01*
X141777243Y-77912195D01*
X141699375Y-77897280D01*
X141620113Y-77882232D01*
X141544802Y-77868069D01*
X141478787Y-77855806D01*
X141427413Y-77846461D01*
X141396025Y-77841050D01*
X141389041Y-77840114D01*
X141382715Y-77827596D01*
X141368710Y-77794246D01*
X141349645Y-77746377D01*
X141342366Y-77727629D01*
X141313004Y-77655195D01*
X141278429Y-77575170D01*
X141247463Y-77507728D01*
X141224677Y-77456159D01*
X141209518Y-77413785D01*
X141204458Y-77387834D01*
X141205264Y-77384356D01*
X141215959Y-77367936D01*
X141240380Y-77331417D01*
X141275905Y-77278687D01*
X141319913Y-77213635D01*
X141369783Y-77140151D01*
X141379644Y-77125645D01*
X141437508Y-77039704D01*
X141480044Y-76974261D01*
X141508946Y-76926304D01*
X141525910Y-76892820D01*
X141532633Y-76870795D01*
X141530810Y-76857217D01*
X141530764Y-76857131D01*
X141516414Y-76839297D01*
X141484677Y-76804817D01*
X141438990Y-76757268D01*
X141382796Y-76700222D01*
X141319532Y-76637255D01*
X141312398Y-76630227D01*
X141232670Y-76553020D01*
X141171143Y-76496330D01*
X141126579Y-76459110D01*
X141097743Y-76440315D01*
X141085042Y-76437889D01*
X141066506Y-76448471D01*
X141028039Y-76472916D01*
X140973614Y-76508612D01*
X140907202Y-76552947D01*
X140832775Y-76603311D01*
X140815399Y-76615160D01*
X140568703Y-76783626D01*
X140457294Y-76733062D01*
X140389543Y-76703595D01*
X140316817Y-76673959D01*
X140254297Y-76650330D01*
X140251543Y-76649358D01*
X140202640Y-76631457D01*
X140164943Y-76616320D01*
X140146575Y-76607210D01*
X140146544Y-76607184D01*
X140140715Y-76590717D01*
X140130808Y-76550219D01*
X140117805Y-76490242D01*
X140102691Y-76415340D01*
X140086448Y-76330064D01*
X140085119Y-76322875D01*
X140068825Y-76235014D01*
X140053867Y-76155260D01*
X140041209Y-76088681D01*
X140031814Y-76040347D01*
X140026646Y-76015325D01*
X140026556Y-76014943D01*
X140023411Y-76004299D01*
X140017296Y-75996262D01*
X140004547Y-75990467D01*
X139981500Y-75986547D01*
X139944491Y-75984135D01*
X139889856Y-75982865D01*
X139813933Y-75982371D01*
X139713056Y-75982286D01*
X139700000Y-75982286D01*
X139596090Y-75982348D01*
M02*
