M48
INCH,TZ
T1C0.016
%
G90
G05
T1
X50550Y-30600
X50550Y-31600
X51100Y-31450
X51100Y-31800
X51200Y-29200
X51487Y-31600
X51526Y-30600
X51900Y-29200
X51900Y-30100
X51900Y-32000
X52274Y-29600
X52300Y-31600
X52600Y-30100
X52700Y-29200
X53050Y-30850
X53500Y-29200
X53500Y-30000
X53800Y-30400
X53800Y-30800
X53800Y-32000
X54200Y-29200
X54200Y-30000
X54200Y-30400
X54200Y-30800
X54300Y-32000
X54800Y-32000
X54950Y-30350
X55000Y-29200
X55000Y-30800
X55100Y-30000
X55394Y-29600
X55550Y-30850
X55800Y-29200
X56050Y-30100
X56176Y-29600
X56550Y-29200
X56550Y-30100
X56550Y-32000
X56924Y-30600
X56924Y-31600
X57750Y-30600
X57750Y-31600
T0
M30
