G04 #@! TF.FileFunction,Legend,Top*
%FSLAX46Y46*%
G04 Gerber Fmt 4.6, Leading zero omitted, Abs format (unit mm)*
G04 Created by KiCad (PCBNEW 4.0.2+dfsg1-stable) date Tue 23 Aug 2016 16:58:00 SAST*
%MOMM*%
G01*
G04 APERTURE LIST*
%ADD10C,0.100000*%
%ADD11C,0.150000*%
G04 APERTURE END LIST*
D10*
D11*
X140200000Y-74334000D02*
X139200000Y-74334000D01*
X139200000Y-76034000D02*
X140200000Y-76034000D01*
X130226000Y-81014000D02*
X132926000Y-81014000D01*
X130226000Y-79514000D02*
X132926000Y-79514000D01*
X131726000Y-80414000D02*
X131726000Y-80164000D01*
X131726000Y-80164000D02*
X131576000Y-80314000D01*
X131476000Y-79914000D02*
X131476000Y-80614000D01*
X131826000Y-80264000D02*
X132176000Y-80264000D01*
X131476000Y-80264000D02*
X131826000Y-79914000D01*
X131826000Y-79914000D02*
X131826000Y-80614000D01*
X131826000Y-80614000D02*
X131476000Y-80264000D01*
X140208000Y-76454000D02*
X140208000Y-81534000D01*
X140208000Y-81534000D02*
X135636000Y-81534000D01*
X135636000Y-81534000D02*
X135636000Y-76454000D01*
X135636000Y-76454000D02*
X140208000Y-76454000D01*
X138684000Y-76454000D02*
X138684000Y-76962000D01*
X138684000Y-76962000D02*
X137414000Y-76962000D01*
X137414000Y-76962000D02*
X137414000Y-76454000D01*
X144237000Y-81139000D02*
X143037000Y-81139000D01*
X143037000Y-79389000D02*
X144237000Y-79389000D01*
X144237000Y-78599000D02*
X143037000Y-78599000D01*
X143037000Y-76849000D02*
X144237000Y-76849000D01*
X144237000Y-76059000D02*
X143037000Y-76059000D01*
X143037000Y-74309000D02*
X144237000Y-74309000D01*
X131226000Y-74309000D02*
X132426000Y-74309000D01*
X132426000Y-76059000D02*
X131226000Y-76059000D01*
X131226000Y-76849000D02*
X132426000Y-76849000D01*
X132426000Y-78599000D02*
X131226000Y-78599000D01*
X136490000Y-76059000D02*
X135290000Y-76059000D01*
X135290000Y-74309000D02*
X136490000Y-74309000D01*
M02*
