G04 #@! TF.FileFunction,Copper,L2,Bot,Signal*
%FSLAX46Y46*%
G04 Gerber Fmt 4.6, Leading zero omitted, Abs format (unit mm)*
G04 Created by KiCad (PCBNEW 4.0.2+dfsg1-stable) date Tue 23 Aug 2016 16:58:00 SAST*
%MOMM*%
G01*
G04 APERTURE LIST*
%ADD10C,0.100000*%
%ADD11R,2.032000X1.727200*%
%ADD12C,0.600000*%
%ADD13C,0.300000*%
%ADD14C,0.750000*%
%ADD15C,0.500000*%
%ADD16C,0.254000*%
G04 APERTURE END LIST*
D10*
D11*
X146685000Y-80264000D03*
X146685000Y-77724000D03*
X146685000Y-75184000D03*
X128397000Y-80264000D03*
X128397000Y-77724000D03*
X128397000Y-75184000D03*
D12*
X139573000Y-77089000D03*
X146685000Y-77724000D03*
X128397000Y-77724000D03*
X146685000Y-80264000D03*
X139954000Y-76200000D03*
X139700000Y-78232000D03*
X129794000Y-79883000D03*
X129794000Y-80772000D03*
X128397000Y-80264000D03*
X137668000Y-76200000D03*
X135890000Y-76200000D03*
X131826000Y-81280000D03*
X142367000Y-76454000D03*
X141732000Y-74168000D03*
X143637000Y-74168000D03*
X131826000Y-76454000D03*
X133604000Y-76454000D03*
X143637000Y-76454000D03*
X139192000Y-81280000D03*
X136652000Y-81280000D03*
X137922000Y-81280000D03*
X143637000Y-81280000D03*
X135890000Y-74168000D03*
X131826000Y-74168000D03*
X137668000Y-74168000D03*
X139700000Y-74168000D03*
X133858000Y-74168000D03*
X130048000Y-74168000D03*
X140700000Y-75184000D03*
X130776980Y-80264000D03*
X137668000Y-78232000D03*
X137668000Y-77216000D03*
X136652000Y-77216000D03*
X136652000Y-78232000D03*
X144587000Y-80264000D03*
X132842000Y-80264000D03*
X141097000Y-78359000D03*
X142687000Y-75184000D03*
X132776000Y-75184000D03*
X134747000Y-78359000D03*
X130876000Y-77724000D03*
X144587000Y-77724000D03*
D13*
X138684000Y-77978000D02*
X138684000Y-79375000D01*
X139573000Y-77089000D02*
X138684000Y-77978000D01*
D14*
X128397000Y-77724000D02*
X129032000Y-77724000D01*
X129032000Y-77724000D02*
X130302000Y-78994000D01*
X144399000Y-79375000D02*
X146050000Y-77724000D01*
X133858000Y-79375000D02*
X138684000Y-79375000D01*
X138811000Y-79375000D02*
X144399000Y-79375000D01*
X133477000Y-78994000D02*
X133858000Y-79375000D01*
X130302000Y-78994000D02*
X133477000Y-78994000D01*
X146050000Y-77724000D02*
X146685000Y-77724000D01*
D15*
X146177000Y-77724000D02*
X146685000Y-77724000D01*
X146177000Y-77724000D02*
X146685000Y-77724000D01*
D13*
X139954000Y-76200000D02*
X140335000Y-76581000D01*
X140700000Y-75454000D02*
X139954000Y-76200000D01*
X140700000Y-75184000D02*
X140700000Y-75454000D01*
X140335000Y-77597000D02*
X139700000Y-78232000D01*
X140335000Y-76581000D02*
X140335000Y-77597000D01*
X129794000Y-79883000D02*
X129794000Y-80772000D01*
X137668000Y-77216000D02*
X137668000Y-76200000D01*
X140700000Y-75184000D02*
X140700000Y-74692000D01*
X140700000Y-74692000D02*
X141478000Y-73914000D01*
X141605000Y-73914000D02*
X141859000Y-74168000D01*
X131826000Y-76454000D02*
X131826000Y-74168000D01*
X143637000Y-76454000D02*
X143637000Y-74168000D01*
X137922000Y-81280000D02*
X136652000Y-81280000D01*
X140700000Y-74692000D02*
X141478000Y-73914000D01*
X141605000Y-73914000D02*
X143383000Y-73914000D01*
X143383000Y-73914000D02*
X143637000Y-74168000D01*
X131826000Y-74168000D02*
X131572000Y-74168000D01*
X137668000Y-74168000D02*
X137414000Y-73914000D01*
X134112000Y-73914000D02*
X133858000Y-74168000D01*
X137414000Y-73914000D02*
X134112000Y-73914000D01*
X130302000Y-73914000D02*
X130048000Y-74168000D01*
X131318000Y-73914000D02*
X130302000Y-73914000D01*
X131572000Y-74168000D02*
X131318000Y-73914000D01*
X140716000Y-75184000D02*
X140700000Y-75184000D01*
X130776980Y-80264000D02*
X130810000Y-80264000D01*
X137668000Y-78232000D02*
X136652000Y-78232000D01*
X137668000Y-77216000D02*
X136652000Y-77216000D01*
X132969000Y-80264000D02*
X144587000Y-80264000D01*
X141097000Y-78359000D02*
X141097000Y-76327000D01*
X142687000Y-75184000D02*
X142748000Y-75184000D01*
X142240000Y-75184000D02*
X142687000Y-75184000D01*
X141097000Y-76327000D02*
X142240000Y-75184000D01*
X134747000Y-76073000D02*
X134747000Y-78359000D01*
X133858000Y-75184000D02*
X134747000Y-76073000D01*
X133858000Y-75184000D02*
X132776000Y-75184000D01*
X128270000Y-75184000D02*
X128524000Y-75184000D01*
X128524000Y-75184000D02*
X130876000Y-77536000D01*
X130876000Y-77536000D02*
X130876000Y-77724000D01*
X130876000Y-77724000D02*
X130810000Y-77724000D01*
X144587000Y-77724000D02*
X144587000Y-76901000D01*
X144526000Y-77724000D02*
X144587000Y-77724000D01*
X144587000Y-76901000D02*
X146304000Y-75184000D01*
X146304000Y-75184000D02*
X146685000Y-75184000D01*
X146431000Y-75184000D02*
X146685000Y-75184000D01*
X146939000Y-75184000D02*
X146685000Y-75184000D01*
D16*
G36*
X127381000Y-78970443D02*
X129209297Y-78970443D01*
X129767427Y-79528573D01*
X129821425Y-79572927D01*
X129874885Y-79617786D01*
X129878369Y-79619701D01*
X129881440Y-79622224D01*
X129943010Y-79655238D01*
X130004180Y-79688866D01*
X130007966Y-79690067D01*
X130011472Y-79691947D01*
X130078267Y-79712368D01*
X130144819Y-79733480D01*
X130148771Y-79733923D01*
X130152571Y-79735085D01*
X130222030Y-79742140D01*
X130291445Y-79749926D01*
X130299218Y-79749980D01*
X130299361Y-79749995D01*
X130299494Y-79749982D01*
X130302000Y-79750000D01*
X132393513Y-79750000D01*
X132317800Y-79824144D01*
X132242348Y-79934338D01*
X132189736Y-80057090D01*
X132161970Y-80187722D01*
X132160105Y-80321260D01*
X132184213Y-80452617D01*
X132233377Y-80576790D01*
X132305722Y-80689048D01*
X132398495Y-80785117D01*
X132508160Y-80861336D01*
X132630541Y-80914803D01*
X132760977Y-80943481D01*
X132894498Y-80946278D01*
X133026020Y-80923087D01*
X133150533Y-80874792D01*
X133263294Y-80803232D01*
X133271938Y-80795000D01*
X144157715Y-80795000D01*
X144253160Y-80861336D01*
X144375541Y-80914803D01*
X144505977Y-80943481D01*
X144639498Y-80946278D01*
X144771020Y-80923087D01*
X144895533Y-80874792D01*
X145008294Y-80803232D01*
X145105008Y-80711132D01*
X145181991Y-80602002D01*
X145236311Y-80479997D01*
X145265899Y-80349765D01*
X145268029Y-80197225D01*
X145242089Y-80066217D01*
X145191197Y-79942743D01*
X145117291Y-79831506D01*
X145064650Y-79778496D01*
X145872702Y-78970443D01*
X147701000Y-78970443D01*
X147753000Y-78966297D01*
X147753000Y-81586000D01*
X127329000Y-81586000D01*
X127329000Y-78963053D01*
X127381000Y-78970443D01*
X127381000Y-78970443D01*
G37*
X127381000Y-78970443D02*
X129209297Y-78970443D01*
X129767427Y-79528573D01*
X129821425Y-79572927D01*
X129874885Y-79617786D01*
X129878369Y-79619701D01*
X129881440Y-79622224D01*
X129943010Y-79655238D01*
X130004180Y-79688866D01*
X130007966Y-79690067D01*
X130011472Y-79691947D01*
X130078267Y-79712368D01*
X130144819Y-79733480D01*
X130148771Y-79733923D01*
X130152571Y-79735085D01*
X130222030Y-79742140D01*
X130291445Y-79749926D01*
X130299218Y-79749980D01*
X130299361Y-79749995D01*
X130299494Y-79749982D01*
X130302000Y-79750000D01*
X132393513Y-79750000D01*
X132317800Y-79824144D01*
X132242348Y-79934338D01*
X132189736Y-80057090D01*
X132161970Y-80187722D01*
X132160105Y-80321260D01*
X132184213Y-80452617D01*
X132233377Y-80576790D01*
X132305722Y-80689048D01*
X132398495Y-80785117D01*
X132508160Y-80861336D01*
X132630541Y-80914803D01*
X132760977Y-80943481D01*
X132894498Y-80946278D01*
X133026020Y-80923087D01*
X133150533Y-80874792D01*
X133263294Y-80803232D01*
X133271938Y-80795000D01*
X144157715Y-80795000D01*
X144253160Y-80861336D01*
X144375541Y-80914803D01*
X144505977Y-80943481D01*
X144639498Y-80946278D01*
X144771020Y-80923087D01*
X144895533Y-80874792D01*
X145008294Y-80803232D01*
X145105008Y-80711132D01*
X145181991Y-80602002D01*
X145236311Y-80479997D01*
X145265899Y-80349765D01*
X145268029Y-80197225D01*
X145242089Y-80066217D01*
X145191197Y-79942743D01*
X145117291Y-79831506D01*
X145064650Y-79778496D01*
X145872702Y-78970443D01*
X147701000Y-78970443D01*
X147753000Y-78966297D01*
X147753000Y-81586000D01*
X127329000Y-81586000D01*
X127329000Y-78963053D01*
X127381000Y-78970443D01*
G36*
X147753000Y-73944947D02*
X147701000Y-73937557D01*
X145669000Y-73937557D01*
X145608327Y-73942395D01*
X145505420Y-73974264D01*
X145415465Y-74033540D01*
X145345585Y-74115530D01*
X145301314Y-74213742D01*
X145286157Y-74320400D01*
X145286157Y-75450896D01*
X144211526Y-76525526D01*
X144180375Y-76563451D01*
X144148865Y-76601003D01*
X144147520Y-76603450D01*
X144145748Y-76605607D01*
X144122586Y-76648804D01*
X144098939Y-76691817D01*
X144098094Y-76694481D01*
X144096776Y-76696939D01*
X144082438Y-76743834D01*
X144067604Y-76790599D01*
X144067293Y-76793372D01*
X144066476Y-76796044D01*
X144061515Y-76844879D01*
X144056052Y-76893586D01*
X144056014Y-76899041D01*
X144056003Y-76899147D01*
X144056012Y-76899245D01*
X144056000Y-76901000D01*
X144056000Y-77294075D01*
X143987348Y-77394338D01*
X143934736Y-77517090D01*
X143906970Y-77647722D01*
X143905105Y-77781260D01*
X143929213Y-77912617D01*
X143978377Y-78036790D01*
X144050722Y-78149048D01*
X144143495Y-78245117D01*
X144253160Y-78321336D01*
X144343883Y-78360972D01*
X144085854Y-78619000D01*
X141726720Y-78619000D01*
X141746311Y-78574997D01*
X141775899Y-78444765D01*
X141778029Y-78292225D01*
X141752089Y-78161217D01*
X141701197Y-78037743D01*
X141628000Y-77927573D01*
X141628000Y-76546948D01*
X142381312Y-75793636D01*
X142475541Y-75834803D01*
X142605977Y-75863481D01*
X142739498Y-75866278D01*
X142871020Y-75843087D01*
X142995533Y-75794792D01*
X143108294Y-75723232D01*
X143205008Y-75631132D01*
X143281991Y-75522002D01*
X143336311Y-75399997D01*
X143365899Y-75269765D01*
X143368029Y-75117225D01*
X143342089Y-74986217D01*
X143291197Y-74862743D01*
X143217291Y-74751506D01*
X143123186Y-74656742D01*
X143012467Y-74582061D01*
X142889352Y-74530308D01*
X142758528Y-74503454D01*
X142624981Y-74502521D01*
X142493795Y-74527546D01*
X142369969Y-74577575D01*
X142258218Y-74650703D01*
X142255872Y-74653000D01*
X142240000Y-74653000D01*
X142191164Y-74657789D01*
X142142322Y-74662062D01*
X142139643Y-74662840D01*
X142136862Y-74663113D01*
X142089903Y-74677291D01*
X142042803Y-74690974D01*
X142040323Y-74692260D01*
X142037652Y-74693066D01*
X141994358Y-74716086D01*
X141950797Y-74738666D01*
X141948615Y-74740408D01*
X141946149Y-74741719D01*
X141908121Y-74772734D01*
X141869805Y-74803321D01*
X141865918Y-74807154D01*
X141865839Y-74807218D01*
X141865779Y-74807291D01*
X141864526Y-74808526D01*
X140721526Y-75951526D01*
X140690375Y-75989451D01*
X140658865Y-76027003D01*
X140657520Y-76029450D01*
X140655748Y-76031607D01*
X140632586Y-76074804D01*
X140608939Y-76117817D01*
X140608094Y-76120481D01*
X140606776Y-76122939D01*
X140592438Y-76169834D01*
X140577604Y-76216599D01*
X140577293Y-76219372D01*
X140576476Y-76222044D01*
X140571515Y-76270879D01*
X140566052Y-76319586D01*
X140566014Y-76325041D01*
X140566003Y-76325147D01*
X140566012Y-76325245D01*
X140566000Y-76327000D01*
X140566000Y-77929075D01*
X140497348Y-78029338D01*
X140444736Y-78152090D01*
X140416970Y-78282722D01*
X140415105Y-78416260D01*
X140439213Y-78547617D01*
X140467476Y-78619000D01*
X139215000Y-78619000D01*
X139215000Y-78197948D01*
X139645132Y-77767816D01*
X139757020Y-77748087D01*
X139881533Y-77699792D01*
X139994294Y-77628232D01*
X140091008Y-77536132D01*
X140167991Y-77427002D01*
X140222311Y-77304997D01*
X140251899Y-77174765D01*
X140254029Y-77022225D01*
X140228089Y-76891217D01*
X140177197Y-76767743D01*
X140103291Y-76656506D01*
X140009186Y-76561742D01*
X139898467Y-76487061D01*
X139775352Y-76435308D01*
X139644528Y-76408454D01*
X139510981Y-76407521D01*
X139379795Y-76432546D01*
X139255969Y-76482575D01*
X139144218Y-76555703D01*
X139048800Y-76649144D01*
X138973348Y-76759338D01*
X138920736Y-76882090D01*
X138892970Y-77012722D01*
X138892894Y-77018158D01*
X138308526Y-77602526D01*
X138277375Y-77640451D01*
X138245865Y-77678003D01*
X138244520Y-77680450D01*
X138242748Y-77682607D01*
X138219586Y-77725804D01*
X138195939Y-77768817D01*
X138195094Y-77771481D01*
X138193776Y-77773939D01*
X138179438Y-77820834D01*
X138164604Y-77867599D01*
X138164293Y-77870372D01*
X138163476Y-77873044D01*
X138158515Y-77921879D01*
X138153052Y-77970586D01*
X138153014Y-77976041D01*
X138153003Y-77976147D01*
X138153012Y-77976245D01*
X138153000Y-77978000D01*
X138153000Y-78619000D01*
X135376720Y-78619000D01*
X135396311Y-78574997D01*
X135425899Y-78444765D01*
X135428029Y-78292225D01*
X135402089Y-78161217D01*
X135351197Y-78037743D01*
X135278000Y-77927573D01*
X135278000Y-76073000D01*
X135273211Y-76024164D01*
X135268938Y-75975322D01*
X135268160Y-75972643D01*
X135267887Y-75969862D01*
X135253705Y-75922890D01*
X135240026Y-75875804D01*
X135238741Y-75873325D01*
X135237934Y-75870652D01*
X135214904Y-75827339D01*
X135192334Y-75783797D01*
X135190592Y-75781615D01*
X135189281Y-75779149D01*
X135158271Y-75741127D01*
X135127680Y-75702806D01*
X135123846Y-75698918D01*
X135123782Y-75698839D01*
X135123709Y-75698779D01*
X135122474Y-75697526D01*
X134233474Y-74808526D01*
X134195549Y-74777375D01*
X134157997Y-74745865D01*
X134155550Y-74744520D01*
X134153393Y-74742748D01*
X134110196Y-74719586D01*
X134067183Y-74695939D01*
X134064519Y-74695094D01*
X134062061Y-74693776D01*
X134015166Y-74679438D01*
X133968401Y-74664604D01*
X133965628Y-74664293D01*
X133962956Y-74663476D01*
X133914121Y-74658515D01*
X133865414Y-74653052D01*
X133859959Y-74653014D01*
X133859853Y-74653003D01*
X133859755Y-74653012D01*
X133858000Y-74653000D01*
X133206638Y-74653000D01*
X133101467Y-74582061D01*
X132978352Y-74530308D01*
X132847528Y-74503454D01*
X132713981Y-74502521D01*
X132582795Y-74527546D01*
X132458969Y-74577575D01*
X132347218Y-74650703D01*
X132251800Y-74744144D01*
X132176348Y-74854338D01*
X132123736Y-74977090D01*
X132095970Y-75107722D01*
X132094105Y-75241260D01*
X132118213Y-75372617D01*
X132167377Y-75496790D01*
X132239722Y-75609048D01*
X132332495Y-75705117D01*
X132442160Y-75781336D01*
X132564541Y-75834803D01*
X132694977Y-75863481D01*
X132828498Y-75866278D01*
X132960020Y-75843087D01*
X133084533Y-75794792D01*
X133197294Y-75723232D01*
X133205938Y-75715000D01*
X133638052Y-75715000D01*
X134216000Y-76292948D01*
X134216000Y-77929075D01*
X134147348Y-78029338D01*
X134094736Y-78152090D01*
X134066970Y-78282722D01*
X134065105Y-78416260D01*
X134086842Y-78534696D01*
X134011573Y-78459427D01*
X133957575Y-78415073D01*
X133904115Y-78370214D01*
X133900631Y-78368299D01*
X133897560Y-78365776D01*
X133835990Y-78332762D01*
X133774820Y-78299134D01*
X133771034Y-78297933D01*
X133767528Y-78296053D01*
X133700733Y-78275632D01*
X133634181Y-78254520D01*
X133630229Y-78254077D01*
X133626429Y-78252915D01*
X133556970Y-78245860D01*
X133487555Y-78238074D01*
X133479782Y-78238020D01*
X133479639Y-78238005D01*
X133479506Y-78238018D01*
X133477000Y-78238000D01*
X131323790Y-78238000D01*
X131394008Y-78171132D01*
X131470991Y-78062002D01*
X131525311Y-77939997D01*
X131554899Y-77809765D01*
X131557029Y-77657225D01*
X131531089Y-77526217D01*
X131480197Y-77402743D01*
X131406291Y-77291506D01*
X131312186Y-77196742D01*
X131236924Y-77145977D01*
X129795843Y-75704895D01*
X129795843Y-74320400D01*
X129791005Y-74259727D01*
X129759136Y-74156820D01*
X129699860Y-74066865D01*
X129617870Y-73996985D01*
X129519658Y-73952714D01*
X129413000Y-73937557D01*
X127381000Y-73937557D01*
X127329000Y-73941703D01*
X127329000Y-73862000D01*
X147753000Y-73862000D01*
X147753000Y-73944947D01*
X147753000Y-73944947D01*
G37*
X147753000Y-73944947D02*
X147701000Y-73937557D01*
X145669000Y-73937557D01*
X145608327Y-73942395D01*
X145505420Y-73974264D01*
X145415465Y-74033540D01*
X145345585Y-74115530D01*
X145301314Y-74213742D01*
X145286157Y-74320400D01*
X145286157Y-75450896D01*
X144211526Y-76525526D01*
X144180375Y-76563451D01*
X144148865Y-76601003D01*
X144147520Y-76603450D01*
X144145748Y-76605607D01*
X144122586Y-76648804D01*
X144098939Y-76691817D01*
X144098094Y-76694481D01*
X144096776Y-76696939D01*
X144082438Y-76743834D01*
X144067604Y-76790599D01*
X144067293Y-76793372D01*
X144066476Y-76796044D01*
X144061515Y-76844879D01*
X144056052Y-76893586D01*
X144056014Y-76899041D01*
X144056003Y-76899147D01*
X144056012Y-76899245D01*
X144056000Y-76901000D01*
X144056000Y-77294075D01*
X143987348Y-77394338D01*
X143934736Y-77517090D01*
X143906970Y-77647722D01*
X143905105Y-77781260D01*
X143929213Y-77912617D01*
X143978377Y-78036790D01*
X144050722Y-78149048D01*
X144143495Y-78245117D01*
X144253160Y-78321336D01*
X144343883Y-78360972D01*
X144085854Y-78619000D01*
X141726720Y-78619000D01*
X141746311Y-78574997D01*
X141775899Y-78444765D01*
X141778029Y-78292225D01*
X141752089Y-78161217D01*
X141701197Y-78037743D01*
X141628000Y-77927573D01*
X141628000Y-76546948D01*
X142381312Y-75793636D01*
X142475541Y-75834803D01*
X142605977Y-75863481D01*
X142739498Y-75866278D01*
X142871020Y-75843087D01*
X142995533Y-75794792D01*
X143108294Y-75723232D01*
X143205008Y-75631132D01*
X143281991Y-75522002D01*
X143336311Y-75399997D01*
X143365899Y-75269765D01*
X143368029Y-75117225D01*
X143342089Y-74986217D01*
X143291197Y-74862743D01*
X143217291Y-74751506D01*
X143123186Y-74656742D01*
X143012467Y-74582061D01*
X142889352Y-74530308D01*
X142758528Y-74503454D01*
X142624981Y-74502521D01*
X142493795Y-74527546D01*
X142369969Y-74577575D01*
X142258218Y-74650703D01*
X142255872Y-74653000D01*
X142240000Y-74653000D01*
X142191164Y-74657789D01*
X142142322Y-74662062D01*
X142139643Y-74662840D01*
X142136862Y-74663113D01*
X142089903Y-74677291D01*
X142042803Y-74690974D01*
X142040323Y-74692260D01*
X142037652Y-74693066D01*
X141994358Y-74716086D01*
X141950797Y-74738666D01*
X141948615Y-74740408D01*
X141946149Y-74741719D01*
X141908121Y-74772734D01*
X141869805Y-74803321D01*
X141865918Y-74807154D01*
X141865839Y-74807218D01*
X141865779Y-74807291D01*
X141864526Y-74808526D01*
X140721526Y-75951526D01*
X140690375Y-75989451D01*
X140658865Y-76027003D01*
X140657520Y-76029450D01*
X140655748Y-76031607D01*
X140632586Y-76074804D01*
X140608939Y-76117817D01*
X140608094Y-76120481D01*
X140606776Y-76122939D01*
X140592438Y-76169834D01*
X140577604Y-76216599D01*
X140577293Y-76219372D01*
X140576476Y-76222044D01*
X140571515Y-76270879D01*
X140566052Y-76319586D01*
X140566014Y-76325041D01*
X140566003Y-76325147D01*
X140566012Y-76325245D01*
X140566000Y-76327000D01*
X140566000Y-77929075D01*
X140497348Y-78029338D01*
X140444736Y-78152090D01*
X140416970Y-78282722D01*
X140415105Y-78416260D01*
X140439213Y-78547617D01*
X140467476Y-78619000D01*
X139215000Y-78619000D01*
X139215000Y-78197948D01*
X139645132Y-77767816D01*
X139757020Y-77748087D01*
X139881533Y-77699792D01*
X139994294Y-77628232D01*
X140091008Y-77536132D01*
X140167991Y-77427002D01*
X140222311Y-77304997D01*
X140251899Y-77174765D01*
X140254029Y-77022225D01*
X140228089Y-76891217D01*
X140177197Y-76767743D01*
X140103291Y-76656506D01*
X140009186Y-76561742D01*
X139898467Y-76487061D01*
X139775352Y-76435308D01*
X139644528Y-76408454D01*
X139510981Y-76407521D01*
X139379795Y-76432546D01*
X139255969Y-76482575D01*
X139144218Y-76555703D01*
X139048800Y-76649144D01*
X138973348Y-76759338D01*
X138920736Y-76882090D01*
X138892970Y-77012722D01*
X138892894Y-77018158D01*
X138308526Y-77602526D01*
X138277375Y-77640451D01*
X138245865Y-77678003D01*
X138244520Y-77680450D01*
X138242748Y-77682607D01*
X138219586Y-77725804D01*
X138195939Y-77768817D01*
X138195094Y-77771481D01*
X138193776Y-77773939D01*
X138179438Y-77820834D01*
X138164604Y-77867599D01*
X138164293Y-77870372D01*
X138163476Y-77873044D01*
X138158515Y-77921879D01*
X138153052Y-77970586D01*
X138153014Y-77976041D01*
X138153003Y-77976147D01*
X138153012Y-77976245D01*
X138153000Y-77978000D01*
X138153000Y-78619000D01*
X135376720Y-78619000D01*
X135396311Y-78574997D01*
X135425899Y-78444765D01*
X135428029Y-78292225D01*
X135402089Y-78161217D01*
X135351197Y-78037743D01*
X135278000Y-77927573D01*
X135278000Y-76073000D01*
X135273211Y-76024164D01*
X135268938Y-75975322D01*
X135268160Y-75972643D01*
X135267887Y-75969862D01*
X135253705Y-75922890D01*
X135240026Y-75875804D01*
X135238741Y-75873325D01*
X135237934Y-75870652D01*
X135214904Y-75827339D01*
X135192334Y-75783797D01*
X135190592Y-75781615D01*
X135189281Y-75779149D01*
X135158271Y-75741127D01*
X135127680Y-75702806D01*
X135123846Y-75698918D01*
X135123782Y-75698839D01*
X135123709Y-75698779D01*
X135122474Y-75697526D01*
X134233474Y-74808526D01*
X134195549Y-74777375D01*
X134157997Y-74745865D01*
X134155550Y-74744520D01*
X134153393Y-74742748D01*
X134110196Y-74719586D01*
X134067183Y-74695939D01*
X134064519Y-74695094D01*
X134062061Y-74693776D01*
X134015166Y-74679438D01*
X133968401Y-74664604D01*
X133965628Y-74664293D01*
X133962956Y-74663476D01*
X133914121Y-74658515D01*
X133865414Y-74653052D01*
X133859959Y-74653014D01*
X133859853Y-74653003D01*
X133859755Y-74653012D01*
X133858000Y-74653000D01*
X133206638Y-74653000D01*
X133101467Y-74582061D01*
X132978352Y-74530308D01*
X132847528Y-74503454D01*
X132713981Y-74502521D01*
X132582795Y-74527546D01*
X132458969Y-74577575D01*
X132347218Y-74650703D01*
X132251800Y-74744144D01*
X132176348Y-74854338D01*
X132123736Y-74977090D01*
X132095970Y-75107722D01*
X132094105Y-75241260D01*
X132118213Y-75372617D01*
X132167377Y-75496790D01*
X132239722Y-75609048D01*
X132332495Y-75705117D01*
X132442160Y-75781336D01*
X132564541Y-75834803D01*
X132694977Y-75863481D01*
X132828498Y-75866278D01*
X132960020Y-75843087D01*
X133084533Y-75794792D01*
X133197294Y-75723232D01*
X133205938Y-75715000D01*
X133638052Y-75715000D01*
X134216000Y-76292948D01*
X134216000Y-77929075D01*
X134147348Y-78029338D01*
X134094736Y-78152090D01*
X134066970Y-78282722D01*
X134065105Y-78416260D01*
X134086842Y-78534696D01*
X134011573Y-78459427D01*
X133957575Y-78415073D01*
X133904115Y-78370214D01*
X133900631Y-78368299D01*
X133897560Y-78365776D01*
X133835990Y-78332762D01*
X133774820Y-78299134D01*
X133771034Y-78297933D01*
X133767528Y-78296053D01*
X133700733Y-78275632D01*
X133634181Y-78254520D01*
X133630229Y-78254077D01*
X133626429Y-78252915D01*
X133556970Y-78245860D01*
X133487555Y-78238074D01*
X133479782Y-78238020D01*
X133479639Y-78238005D01*
X133479506Y-78238018D01*
X133477000Y-78238000D01*
X131323790Y-78238000D01*
X131394008Y-78171132D01*
X131470991Y-78062002D01*
X131525311Y-77939997D01*
X131554899Y-77809765D01*
X131557029Y-77657225D01*
X131531089Y-77526217D01*
X131480197Y-77402743D01*
X131406291Y-77291506D01*
X131312186Y-77196742D01*
X131236924Y-77145977D01*
X129795843Y-75704895D01*
X129795843Y-74320400D01*
X129791005Y-74259727D01*
X129759136Y-74156820D01*
X129699860Y-74066865D01*
X129617870Y-73996985D01*
X129519658Y-73952714D01*
X129413000Y-73937557D01*
X127381000Y-73937557D01*
X127329000Y-73941703D01*
X127329000Y-73862000D01*
X147753000Y-73862000D01*
X147753000Y-73944947D01*
M02*
