G04 #@! TF.FileFunction,Copper,L2,Bot,Signal*
%FSLAX46Y46*%
G04 Gerber Fmt 4.6, Leading zero omitted, Abs format (unit mm)*
G04 Created by KiCad (PCBNEW 4.0.2+dfsg1-stable) date Thu 25 Aug 2016 11:35:14 SAST*
%MOMM*%
G01*
G04 APERTURE LIST*
%ADD10C,0.100000*%
%ADD11R,2.032000X1.727200*%
%ADD12C,0.600000*%
%ADD13C,0.750000*%
%ADD14C,0.300000*%
%ADD15C,0.254000*%
G04 APERTURE END LIST*
D10*
D11*
X146812000Y-68580000D03*
X146812000Y-66040000D03*
X146812000Y-63500000D03*
X126492000Y-68580000D03*
X126492000Y-66040000D03*
X126492000Y-63500000D03*
D12*
X138620500Y-67627500D03*
X126492000Y-66040000D03*
X146812000Y-66040000D03*
X130810000Y-64770000D03*
X136652000Y-63500000D03*
X134366000Y-62611000D03*
X129794000Y-69469000D03*
X130683000Y-67310000D03*
X136271000Y-66421000D03*
X134747000Y-66421000D03*
X135509000Y-66421000D03*
X143510000Y-62611000D03*
X141478000Y-62738000D03*
X144272000Y-64770000D03*
X140192000Y-63500000D03*
X137795000Y-69215000D03*
X143510000Y-69469000D03*
X128143000Y-67310000D03*
X129252980Y-63500000D03*
X136652000Y-69215000D03*
X135509000Y-69215000D03*
X126492000Y-68580000D03*
X146812000Y-68580000D03*
X140462000Y-66675000D03*
X142560000Y-63500000D03*
X137160000Y-65659000D03*
X141478000Y-64262000D03*
X129794000Y-65024000D03*
X145288000Y-64770000D03*
D13*
X126492000Y-66040000D02*
X132842000Y-66040000D01*
X144462500Y-66040000D02*
X146812000Y-66040000D01*
X142875000Y-67627500D02*
X144462500Y-66040000D01*
X134429500Y-67627500D02*
X138620500Y-67627500D01*
X138620500Y-67627500D02*
X142875000Y-67627500D01*
X132842000Y-66040000D02*
X134429500Y-67627500D01*
D14*
X129252980Y-63500000D02*
X129286000Y-63500000D01*
X129286000Y-63500000D02*
X130556000Y-64770000D01*
X130556000Y-64770000D02*
X130810000Y-64770000D01*
X140192000Y-63500000D02*
X136652000Y-63500000D01*
X126492000Y-68580000D02*
X128905000Y-68580000D01*
X128905000Y-68580000D02*
X129794000Y-69469000D01*
X126492000Y-68580000D02*
X129413000Y-68580000D01*
X129413000Y-68580000D02*
X130683000Y-67310000D01*
X137160000Y-63500000D02*
X136271000Y-64389000D01*
X136271000Y-64389000D02*
X136271000Y-66421000D01*
X137160000Y-63500000D02*
X140192000Y-63500000D01*
X143510000Y-62611000D02*
X143510000Y-64135000D01*
X141605000Y-62738000D02*
X141986000Y-62357000D01*
X141986000Y-62357000D02*
X143256000Y-62357000D01*
X143256000Y-62357000D02*
X143510000Y-62611000D01*
X141478000Y-62738000D02*
X141605000Y-62738000D01*
X144145000Y-64770000D02*
X144272000Y-64770000D01*
X143510000Y-64135000D02*
X144145000Y-64770000D01*
X137795000Y-69215000D02*
X143256000Y-69215000D01*
X143256000Y-69215000D02*
X143510000Y-69469000D01*
X126492000Y-68580000D02*
X126873000Y-68580000D01*
X126873000Y-68580000D02*
X128143000Y-67310000D01*
X140208000Y-63500000D02*
X140192000Y-63500000D01*
X136652000Y-69215000D02*
X135509000Y-69215000D01*
X140462000Y-66675000D02*
X141097000Y-66675000D01*
X140462000Y-66802000D02*
X140462000Y-66675000D01*
X142560000Y-63500000D02*
X142494000Y-63500000D01*
X142560000Y-65212000D02*
X142560000Y-63500000D01*
X141097000Y-66675000D02*
X142560000Y-65212000D01*
X140970000Y-65659000D02*
X137160000Y-65659000D01*
X141478000Y-65151000D02*
X140970000Y-65659000D01*
X141478000Y-64262000D02*
X141478000Y-65151000D01*
X126492000Y-63500000D02*
X126746000Y-63500000D01*
X126746000Y-63500000D02*
X128016000Y-64770000D01*
X128016000Y-64770000D02*
X129540000Y-64770000D01*
X129540000Y-64770000D02*
X129794000Y-65024000D01*
X145288000Y-64770000D02*
X146558000Y-63500000D01*
X146558000Y-63500000D02*
X146812000Y-63500000D01*
X146812000Y-63500000D02*
X146558000Y-63500000D01*
D15*
G36*
X133894927Y-68162073D02*
X134140191Y-68325953D01*
X134429500Y-68383500D01*
X142875000Y-68383500D01*
X143164309Y-68325953D01*
X143409573Y-68162073D01*
X144775646Y-66796000D01*
X145407536Y-66796000D01*
X145407536Y-66903600D01*
X145415000Y-66943267D01*
X145415000Y-67183000D01*
X145423685Y-67229159D01*
X145450965Y-67271553D01*
X145492590Y-67299994D01*
X145542000Y-67310000D01*
X147880000Y-67310000D01*
X147880000Y-69775000D01*
X125424000Y-69775000D01*
X125424000Y-67310000D01*
X127762000Y-67310000D01*
X127808159Y-67301315D01*
X127850553Y-67274035D01*
X127878994Y-67232410D01*
X127889000Y-67183000D01*
X127889000Y-66940459D01*
X127896464Y-66903600D01*
X127896464Y-66796000D01*
X132528854Y-66796000D01*
X133894927Y-68162073D01*
X133894927Y-68162073D01*
G37*
X133894927Y-68162073D02*
X134140191Y-68325953D01*
X134429500Y-68383500D01*
X142875000Y-68383500D01*
X143164309Y-68325953D01*
X143409573Y-68162073D01*
X144775646Y-66796000D01*
X145407536Y-66796000D01*
X145407536Y-66903600D01*
X145415000Y-66943267D01*
X145415000Y-67183000D01*
X145423685Y-67229159D01*
X145450965Y-67271553D01*
X145492590Y-67299994D01*
X145542000Y-67310000D01*
X147880000Y-67310000D01*
X147880000Y-69775000D01*
X125424000Y-69775000D01*
X125424000Y-67310000D01*
X127762000Y-67310000D01*
X127808159Y-67301315D01*
X127850553Y-67274035D01*
X127878994Y-67232410D01*
X127889000Y-67183000D01*
X127889000Y-66940459D01*
X127896464Y-66903600D01*
X127896464Y-66796000D01*
X132528854Y-66796000D01*
X133894927Y-68162073D01*
G36*
X145415000Y-62599541D02*
X145407536Y-62636400D01*
X145407536Y-63899516D01*
X145218113Y-64088939D01*
X145153135Y-64088882D01*
X144902748Y-64192339D01*
X144711013Y-64383741D01*
X144607118Y-64633946D01*
X144606882Y-64904865D01*
X144710339Y-65155252D01*
X144838863Y-65284000D01*
X144462500Y-65284000D01*
X144173191Y-65341547D01*
X143927927Y-65505427D01*
X142561854Y-66871500D01*
X141651448Y-66871500D01*
X142935471Y-65587476D01*
X142935474Y-65587474D01*
X143050580Y-65415205D01*
X143091000Y-65212000D01*
X143091000Y-63932166D01*
X143136987Y-63886259D01*
X143240882Y-63636054D01*
X143241118Y-63365135D01*
X143137661Y-63114748D01*
X142946259Y-62923013D01*
X142696054Y-62819118D01*
X142425135Y-62818882D01*
X142174748Y-62922339D01*
X141983013Y-63113741D01*
X141879118Y-63363946D01*
X141878882Y-63634865D01*
X141924563Y-63745422D01*
X141864259Y-63685013D01*
X141614054Y-63581118D01*
X141343135Y-63580882D01*
X141092748Y-63684339D01*
X140901013Y-63875741D01*
X140797118Y-64125946D01*
X140796882Y-64396865D01*
X140900339Y-64647252D01*
X140947000Y-64693994D01*
X140947000Y-64931053D01*
X140750052Y-65128000D01*
X137592166Y-65128000D01*
X137546259Y-65082013D01*
X137296054Y-64978118D01*
X137025135Y-64977882D01*
X136774748Y-65081339D01*
X136583013Y-65272741D01*
X136479118Y-65522946D01*
X136478882Y-65793865D01*
X136582339Y-66044252D01*
X136773741Y-66235987D01*
X137023946Y-66339882D01*
X137294865Y-66340118D01*
X137545252Y-66236661D01*
X137591994Y-66190000D01*
X139983926Y-66190000D01*
X139885013Y-66288741D01*
X139781118Y-66538946D01*
X139780882Y-66809865D01*
X139806349Y-66871500D01*
X134742646Y-66871500D01*
X133376573Y-65505427D01*
X133302293Y-65455795D01*
X133131309Y-65341547D01*
X132842000Y-65284000D01*
X130423415Y-65284000D01*
X130474882Y-65160054D01*
X130475118Y-64889135D01*
X130371661Y-64638748D01*
X130180259Y-64447013D01*
X129930054Y-64343118D01*
X129838417Y-64343038D01*
X129743205Y-64279420D01*
X129540000Y-64239000D01*
X128235948Y-64239000D01*
X127896464Y-63899516D01*
X127896464Y-62636400D01*
X127889000Y-62596733D01*
X127889000Y-62305000D01*
X145415000Y-62305000D01*
X145415000Y-62599541D01*
X145415000Y-62599541D01*
G37*
X145415000Y-62599541D02*
X145407536Y-62636400D01*
X145407536Y-63899516D01*
X145218113Y-64088939D01*
X145153135Y-64088882D01*
X144902748Y-64192339D01*
X144711013Y-64383741D01*
X144607118Y-64633946D01*
X144606882Y-64904865D01*
X144710339Y-65155252D01*
X144838863Y-65284000D01*
X144462500Y-65284000D01*
X144173191Y-65341547D01*
X143927927Y-65505427D01*
X142561854Y-66871500D01*
X141651448Y-66871500D01*
X142935471Y-65587476D01*
X142935474Y-65587474D01*
X143050580Y-65415205D01*
X143091000Y-65212000D01*
X143091000Y-63932166D01*
X143136987Y-63886259D01*
X143240882Y-63636054D01*
X143241118Y-63365135D01*
X143137661Y-63114748D01*
X142946259Y-62923013D01*
X142696054Y-62819118D01*
X142425135Y-62818882D01*
X142174748Y-62922339D01*
X141983013Y-63113741D01*
X141879118Y-63363946D01*
X141878882Y-63634865D01*
X141924563Y-63745422D01*
X141864259Y-63685013D01*
X141614054Y-63581118D01*
X141343135Y-63580882D01*
X141092748Y-63684339D01*
X140901013Y-63875741D01*
X140797118Y-64125946D01*
X140796882Y-64396865D01*
X140900339Y-64647252D01*
X140947000Y-64693994D01*
X140947000Y-64931053D01*
X140750052Y-65128000D01*
X137592166Y-65128000D01*
X137546259Y-65082013D01*
X137296054Y-64978118D01*
X137025135Y-64977882D01*
X136774748Y-65081339D01*
X136583013Y-65272741D01*
X136479118Y-65522946D01*
X136478882Y-65793865D01*
X136582339Y-66044252D01*
X136773741Y-66235987D01*
X137023946Y-66339882D01*
X137294865Y-66340118D01*
X137545252Y-66236661D01*
X137591994Y-66190000D01*
X139983926Y-66190000D01*
X139885013Y-66288741D01*
X139781118Y-66538946D01*
X139780882Y-66809865D01*
X139806349Y-66871500D01*
X134742646Y-66871500D01*
X133376573Y-65505427D01*
X133302293Y-65455795D01*
X133131309Y-65341547D01*
X132842000Y-65284000D01*
X130423415Y-65284000D01*
X130474882Y-65160054D01*
X130475118Y-64889135D01*
X130371661Y-64638748D01*
X130180259Y-64447013D01*
X129930054Y-64343118D01*
X129838417Y-64343038D01*
X129743205Y-64279420D01*
X129540000Y-64239000D01*
X128235948Y-64239000D01*
X127896464Y-63899516D01*
X127896464Y-62636400D01*
X127889000Y-62596733D01*
X127889000Y-62305000D01*
X145415000Y-62305000D01*
X145415000Y-62599541D01*
M02*
