M48
INCH,TZ
T1C0.016
%
G90
G05
T1
X49800Y-26000
X49800Y-27000
X50450Y-26500
X50887Y-25000
X51100Y-25600
X51100Y-27350
X51450Y-26500
X51500Y-25500
X52900Y-24650
X53050Y-26150
X53350Y-26150
X53350Y-27250
X53650Y-26150
X53800Y-25000
X53800Y-27250
X54000Y-25850
X54250Y-27250
X54575Y-26625
X55194Y-25000
X55300Y-26250
X55700Y-24700
X55700Y-25300
X56126Y-25000
X56500Y-24650
X56500Y-27350
X56800Y-25500
X57200Y-25500
X57800Y-26000
X57800Y-27000
T0
M30
