G04 #@! TF.FileFunction,Copper,L1,Top,Signal*
%FSLAX46Y46*%
G04 Gerber Fmt 4.6, Leading zero omitted, Abs format (unit mm)*
G04 Created by KiCad (PCBNEW 4.0.2+dfsg1-stable) date Wed 24 Aug 2016 16:40:44 SAST*
%MOMM*%
G01*
G04 APERTURE LIST*
%ADD10C,0.100000*%
%ADD11R,2.032000X1.727200*%
%ADD12R,1.000000X1.250000*%
%ADD13R,1.198880X1.198880*%
%ADD14R,0.700000X1.300000*%
%ADD15R,2.200000X0.700000*%
%ADD16C,0.600000*%
%ADD17C,0.300000*%
%ADD18C,0.254000*%
G04 APERTURE END LIST*
D10*
D11*
X146812000Y-68580000D03*
X146812000Y-66040000D03*
X146812000Y-63500000D03*
X126492000Y-68580000D03*
X126492000Y-66040000D03*
X126492000Y-63500000D03*
D12*
X138192000Y-63500000D03*
X140192000Y-63500000D03*
D13*
X131351020Y-63500000D03*
X129252980Y-63500000D03*
D14*
X135316000Y-63500000D03*
X133416000Y-63500000D03*
X142560000Y-66040000D03*
X144460000Y-66040000D03*
X142560000Y-63500000D03*
X144460000Y-63500000D03*
X130744000Y-66040000D03*
X128844000Y-66040000D03*
X130744000Y-68580000D03*
X128844000Y-68580000D03*
X142560000Y-68580000D03*
X144460000Y-68580000D03*
D15*
X132842000Y-65405000D03*
X132842000Y-66675000D03*
X132842000Y-67945000D03*
X132842000Y-69215000D03*
X140462000Y-69215000D03*
X140462000Y-67945000D03*
X140462000Y-66675000D03*
X140462000Y-65405000D03*
D16*
X138620500Y-67627500D03*
X126492000Y-66040000D03*
X146812000Y-66040000D03*
X136652000Y-63500000D03*
X134366000Y-62611000D03*
X129794000Y-69469000D03*
X130683000Y-67310000D03*
X136271000Y-66421000D03*
X134747000Y-66421000D03*
X135509000Y-66421000D03*
X143510000Y-62611000D03*
X141478000Y-62738000D03*
X144272000Y-64770000D03*
X140192000Y-63500000D03*
X137795000Y-69215000D03*
X143510000Y-69469000D03*
X128143000Y-67310000D03*
X129252980Y-63500000D03*
X136652000Y-69215000D03*
X135509000Y-69215000D03*
X126492000Y-68580000D03*
X146812000Y-68580000D03*
X140462000Y-66675000D03*
X142560000Y-63500000D03*
X137160000Y-65659000D03*
X141478000Y-64262000D03*
X129794000Y-65024000D03*
X145288000Y-64770000D03*
D17*
X140462000Y-65405000D02*
X139065000Y-65405000D01*
X139065000Y-65405000D02*
X138620500Y-65849500D01*
X138620500Y-65849500D02*
X138620500Y-67627500D01*
X144460000Y-68580000D02*
X144460000Y-68138000D01*
X144460000Y-68138000D02*
X146558000Y-66040000D01*
X146558000Y-66040000D02*
X146812000Y-66040000D01*
X138192000Y-63500000D02*
X138192000Y-64532000D01*
X138192000Y-64532000D02*
X139065000Y-65405000D01*
X136652000Y-63500000D02*
X136652000Y-62865000D01*
X134366000Y-62484000D02*
X134366000Y-62611000D01*
X134493000Y-62357000D02*
X134366000Y-62484000D01*
X136144000Y-62357000D02*
X134493000Y-62357000D01*
X136652000Y-62865000D02*
X136144000Y-62357000D01*
X135509000Y-66421000D02*
X134747000Y-66421000D01*
X136271000Y-66421000D02*
X134747000Y-66421000D01*
X140192000Y-63500000D02*
X140716000Y-63500000D01*
X140716000Y-63500000D02*
X141478000Y-62738000D01*
X129252980Y-63500000D02*
X129252980Y-63406020D01*
X136652000Y-69215000D02*
X137795000Y-69215000D01*
X135509000Y-69215000D02*
X136652000Y-69215000D01*
X132842000Y-69215000D02*
X135509000Y-69215000D01*
X131351020Y-63500000D02*
X133416000Y-63500000D01*
X140462000Y-67945000D02*
X141351000Y-67945000D01*
X141351000Y-67945000D02*
X142560000Y-66736000D01*
X142560000Y-66736000D02*
X142560000Y-66040000D01*
X135316000Y-63500000D02*
X135316000Y-64577000D01*
X139065000Y-69215000D02*
X140462000Y-69215000D01*
X137922000Y-68072000D02*
X139065000Y-69215000D01*
X137922000Y-65278000D02*
X137922000Y-68072000D01*
X137541000Y-64897000D02*
X137922000Y-65278000D01*
X135636000Y-64897000D02*
X137541000Y-64897000D01*
X135316000Y-64577000D02*
X135636000Y-64897000D01*
X132842000Y-67945000D02*
X131379000Y-67945000D01*
X131379000Y-67945000D02*
X130744000Y-68580000D01*
X132842000Y-66675000D02*
X131379000Y-66675000D01*
X131379000Y-66675000D02*
X130744000Y-66040000D01*
X142560000Y-68580000D02*
X142875000Y-68580000D01*
X142875000Y-68580000D02*
X143510000Y-67945000D01*
X136906000Y-65405000D02*
X132842000Y-65405000D01*
X137160000Y-65659000D02*
X136906000Y-65405000D01*
X141986000Y-64770000D02*
X141478000Y-64262000D01*
X143256000Y-64770000D02*
X141986000Y-64770000D01*
X143510000Y-65024000D02*
X143256000Y-64770000D01*
X143510000Y-67945000D02*
X143510000Y-65024000D01*
X129794000Y-65024000D02*
X129794000Y-68072000D01*
X129794000Y-68072000D02*
X129286000Y-68580000D01*
X129286000Y-68580000D02*
X128844000Y-68580000D01*
X126492000Y-63500000D02*
X126746000Y-63500000D01*
X126746000Y-63500000D02*
X128844000Y-65598000D01*
X128844000Y-65598000D02*
X128844000Y-66040000D01*
X144460000Y-63500000D02*
X146812000Y-63500000D01*
X144460000Y-66040000D02*
X144460000Y-65598000D01*
X144460000Y-65598000D02*
X145288000Y-64770000D01*
D18*
G36*
X128105536Y-65610484D02*
X128105536Y-66690000D01*
X128132103Y-66831190D01*
X128143000Y-66848125D01*
X128143000Y-66929000D01*
X128151685Y-66975159D01*
X128178965Y-67017553D01*
X128220590Y-67045994D01*
X128270000Y-67056000D01*
X128383068Y-67056000D01*
X128494000Y-67078464D01*
X129194000Y-67078464D01*
X129263000Y-67065481D01*
X129263000Y-67555509D01*
X129194000Y-67541536D01*
X128494000Y-67541536D01*
X128374615Y-67564000D01*
X128270000Y-67564000D01*
X128223841Y-67572685D01*
X128181447Y-67599965D01*
X128153006Y-67641590D01*
X128143000Y-67691000D01*
X128143000Y-67768828D01*
X128136141Y-67778866D01*
X128105536Y-67930000D01*
X128105536Y-69230000D01*
X128132103Y-69371190D01*
X128143000Y-69388125D01*
X128143000Y-69469000D01*
X128151685Y-69515159D01*
X128178965Y-69557553D01*
X128220590Y-69585994D01*
X128270000Y-69596000D01*
X128383068Y-69596000D01*
X128494000Y-69618464D01*
X129194000Y-69618464D01*
X129313385Y-69596000D01*
X129413000Y-69596000D01*
X129459159Y-69587315D01*
X129501553Y-69560035D01*
X129529994Y-69518410D01*
X129540000Y-69469000D01*
X129540000Y-69398490D01*
X129551859Y-69381134D01*
X129582464Y-69230000D01*
X129582464Y-69008267D01*
X129661474Y-68955474D01*
X130005536Y-68611411D01*
X130005536Y-69230000D01*
X130032103Y-69371190D01*
X130048000Y-69395895D01*
X130048000Y-69469000D01*
X130056685Y-69515159D01*
X130083965Y-69557553D01*
X130125590Y-69585994D01*
X130175000Y-69596000D01*
X130283068Y-69596000D01*
X130394000Y-69618464D01*
X131094000Y-69618464D01*
X131213385Y-69596000D01*
X131318000Y-69596000D01*
X131364159Y-69587315D01*
X131406553Y-69560035D01*
X131434994Y-69518410D01*
X131445000Y-69469000D01*
X131445000Y-69391172D01*
X131451859Y-69381134D01*
X131482464Y-69230000D01*
X131482464Y-68707000D01*
X134239000Y-68707000D01*
X134285159Y-68698315D01*
X134327553Y-68671035D01*
X134355994Y-68629410D01*
X134366000Y-68580000D01*
X134366000Y-65936000D01*
X136537611Y-65936000D01*
X136582339Y-66044252D01*
X136773741Y-66235987D01*
X137023946Y-66339882D01*
X137294865Y-66340118D01*
X137391000Y-66300396D01*
X137391000Y-68072000D01*
X137431420Y-68275205D01*
X137546526Y-68447474D01*
X138689526Y-69590474D01*
X138861795Y-69705580D01*
X138938000Y-69720738D01*
X138938000Y-69775000D01*
X125424000Y-69775000D01*
X125424000Y-67310000D01*
X127762000Y-67310000D01*
X127808159Y-67301315D01*
X127850553Y-67274035D01*
X127878994Y-67232410D01*
X127889000Y-67183000D01*
X127889000Y-66940459D01*
X127896464Y-66903600D01*
X127896464Y-65401412D01*
X128105536Y-65610484D01*
X128105536Y-65610484D01*
G37*
X128105536Y-65610484D02*
X128105536Y-66690000D01*
X128132103Y-66831190D01*
X128143000Y-66848125D01*
X128143000Y-66929000D01*
X128151685Y-66975159D01*
X128178965Y-67017553D01*
X128220590Y-67045994D01*
X128270000Y-67056000D01*
X128383068Y-67056000D01*
X128494000Y-67078464D01*
X129194000Y-67078464D01*
X129263000Y-67065481D01*
X129263000Y-67555509D01*
X129194000Y-67541536D01*
X128494000Y-67541536D01*
X128374615Y-67564000D01*
X128270000Y-67564000D01*
X128223841Y-67572685D01*
X128181447Y-67599965D01*
X128153006Y-67641590D01*
X128143000Y-67691000D01*
X128143000Y-67768828D01*
X128136141Y-67778866D01*
X128105536Y-67930000D01*
X128105536Y-69230000D01*
X128132103Y-69371190D01*
X128143000Y-69388125D01*
X128143000Y-69469000D01*
X128151685Y-69515159D01*
X128178965Y-69557553D01*
X128220590Y-69585994D01*
X128270000Y-69596000D01*
X128383068Y-69596000D01*
X128494000Y-69618464D01*
X129194000Y-69618464D01*
X129313385Y-69596000D01*
X129413000Y-69596000D01*
X129459159Y-69587315D01*
X129501553Y-69560035D01*
X129529994Y-69518410D01*
X129540000Y-69469000D01*
X129540000Y-69398490D01*
X129551859Y-69381134D01*
X129582464Y-69230000D01*
X129582464Y-69008267D01*
X129661474Y-68955474D01*
X130005536Y-68611411D01*
X130005536Y-69230000D01*
X130032103Y-69371190D01*
X130048000Y-69395895D01*
X130048000Y-69469000D01*
X130056685Y-69515159D01*
X130083965Y-69557553D01*
X130125590Y-69585994D01*
X130175000Y-69596000D01*
X130283068Y-69596000D01*
X130394000Y-69618464D01*
X131094000Y-69618464D01*
X131213385Y-69596000D01*
X131318000Y-69596000D01*
X131364159Y-69587315D01*
X131406553Y-69560035D01*
X131434994Y-69518410D01*
X131445000Y-69469000D01*
X131445000Y-69391172D01*
X131451859Y-69381134D01*
X131482464Y-69230000D01*
X131482464Y-68707000D01*
X134239000Y-68707000D01*
X134285159Y-68698315D01*
X134327553Y-68671035D01*
X134355994Y-68629410D01*
X134366000Y-68580000D01*
X134366000Y-65936000D01*
X136537611Y-65936000D01*
X136582339Y-66044252D01*
X136773741Y-66235987D01*
X137023946Y-66339882D01*
X137294865Y-66340118D01*
X137391000Y-66300396D01*
X137391000Y-68072000D01*
X137431420Y-68275205D01*
X137546526Y-68447474D01*
X138689526Y-69590474D01*
X138861795Y-69705580D01*
X138938000Y-69720738D01*
X138938000Y-69775000D01*
X125424000Y-69775000D01*
X125424000Y-67310000D01*
X127762000Y-67310000D01*
X127808159Y-67301315D01*
X127850553Y-67274035D01*
X127878994Y-67232410D01*
X127889000Y-67183000D01*
X127889000Y-66940459D01*
X127896464Y-66903600D01*
X127896464Y-65401412D01*
X128105536Y-65610484D01*
G36*
X147880000Y-69775000D02*
X141986000Y-69775000D01*
X141986000Y-69596000D01*
X142099068Y-69596000D01*
X142210000Y-69618464D01*
X142910000Y-69618464D01*
X143029385Y-69596000D01*
X143129000Y-69596000D01*
X143175159Y-69587315D01*
X143217553Y-69560035D01*
X143245994Y-69518410D01*
X143256000Y-69469000D01*
X143256000Y-69398490D01*
X143267859Y-69381134D01*
X143298464Y-69230000D01*
X143298464Y-68907484D01*
X143721536Y-68484411D01*
X143721536Y-69230000D01*
X143748103Y-69371190D01*
X143764000Y-69395895D01*
X143764000Y-69469000D01*
X143772685Y-69515159D01*
X143799965Y-69557553D01*
X143841590Y-69585994D01*
X143891000Y-69596000D01*
X143999068Y-69596000D01*
X144110000Y-69618464D01*
X144810000Y-69618464D01*
X144929385Y-69596000D01*
X145034000Y-69596000D01*
X145080159Y-69587315D01*
X145122553Y-69560035D01*
X145150994Y-69518410D01*
X145161000Y-69469000D01*
X145161000Y-69391172D01*
X145167859Y-69381134D01*
X145198464Y-69230000D01*
X145198464Y-68150484D01*
X146038948Y-67310000D01*
X147880000Y-67310000D01*
X147880000Y-69775000D01*
X147880000Y-69775000D01*
G37*
X147880000Y-69775000D02*
X141986000Y-69775000D01*
X141986000Y-69596000D01*
X142099068Y-69596000D01*
X142210000Y-69618464D01*
X142910000Y-69618464D01*
X143029385Y-69596000D01*
X143129000Y-69596000D01*
X143175159Y-69587315D01*
X143217553Y-69560035D01*
X143245994Y-69518410D01*
X143256000Y-69469000D01*
X143256000Y-69398490D01*
X143267859Y-69381134D01*
X143298464Y-69230000D01*
X143298464Y-68907484D01*
X143721536Y-68484411D01*
X143721536Y-69230000D01*
X143748103Y-69371190D01*
X143764000Y-69395895D01*
X143764000Y-69469000D01*
X143772685Y-69515159D01*
X143799965Y-69557553D01*
X143841590Y-69585994D01*
X143891000Y-69596000D01*
X143999068Y-69596000D01*
X144110000Y-69618464D01*
X144810000Y-69618464D01*
X144929385Y-69596000D01*
X145034000Y-69596000D01*
X145080159Y-69587315D01*
X145122553Y-69560035D01*
X145150994Y-69518410D01*
X145161000Y-69469000D01*
X145161000Y-69391172D01*
X145167859Y-69381134D01*
X145198464Y-69230000D01*
X145198464Y-68150484D01*
X146038948Y-67310000D01*
X147880000Y-67310000D01*
X147880000Y-69775000D01*
G36*
X130394000Y-67078464D02*
X131045416Y-67078464D01*
X131175795Y-67165580D01*
X131318000Y-67193867D01*
X131318000Y-67426133D01*
X131178862Y-67453810D01*
X131175795Y-67454420D01*
X131045416Y-67541536D01*
X130394000Y-67541536D01*
X130325000Y-67554519D01*
X130325000Y-67064491D01*
X130394000Y-67078464D01*
X130394000Y-67078464D01*
G37*
X130394000Y-67078464D02*
X131045416Y-67078464D01*
X131175795Y-67165580D01*
X131318000Y-67193867D01*
X131318000Y-67426133D01*
X131178862Y-67453810D01*
X131175795Y-67454420D01*
X131045416Y-67541536D01*
X130394000Y-67541536D01*
X130325000Y-67554519D01*
X130325000Y-67064491D01*
X130394000Y-67078464D01*
G36*
X145415000Y-62599541D02*
X145407536Y-62636400D01*
X145407536Y-62969000D01*
X145198464Y-62969000D01*
X145198464Y-62850000D01*
X145171897Y-62708810D01*
X145161000Y-62691875D01*
X145161000Y-62611000D01*
X145152315Y-62564841D01*
X145125035Y-62522447D01*
X145083410Y-62494006D01*
X145034000Y-62484000D01*
X144920932Y-62484000D01*
X144810000Y-62461536D01*
X144110000Y-62461536D01*
X143990615Y-62484000D01*
X143891000Y-62484000D01*
X143844841Y-62492685D01*
X143802447Y-62519965D01*
X143774006Y-62561590D01*
X143764000Y-62611000D01*
X143764000Y-62681510D01*
X143752141Y-62698866D01*
X143721536Y-62850000D01*
X143721536Y-64150000D01*
X143748103Y-64291190D01*
X143764000Y-64315895D01*
X143764000Y-64389000D01*
X143772685Y-64435159D01*
X143799965Y-64477553D01*
X143841590Y-64505994D01*
X143891000Y-64516000D01*
X143999068Y-64516000D01*
X144110000Y-64538464D01*
X144646766Y-64538464D01*
X144607118Y-64633946D01*
X144607060Y-64699992D01*
X144305516Y-65001536D01*
X144110000Y-65001536D01*
X144039182Y-65014861D01*
X144000580Y-64820795D01*
X143885474Y-64648526D01*
X143631474Y-64394526D01*
X143459205Y-64279420D01*
X143279495Y-64243673D01*
X143298464Y-64150000D01*
X143298464Y-62850000D01*
X143271897Y-62708810D01*
X143256000Y-62684105D01*
X143256000Y-62611000D01*
X143247315Y-62564841D01*
X143220035Y-62522447D01*
X143178410Y-62494006D01*
X143129000Y-62484000D01*
X143020932Y-62484000D01*
X142910000Y-62461536D01*
X142210000Y-62461536D01*
X142090615Y-62484000D01*
X141986000Y-62484000D01*
X141939841Y-62492685D01*
X141897447Y-62519965D01*
X141869006Y-62561590D01*
X141859000Y-62611000D01*
X141859000Y-62688828D01*
X141852141Y-62698866D01*
X141821536Y-62850000D01*
X141821536Y-63667273D01*
X141614054Y-63581118D01*
X141343135Y-63580882D01*
X141092748Y-63684339D01*
X140901013Y-63875741D01*
X140797118Y-64125946D01*
X140796882Y-64396865D01*
X140898582Y-64643000D01*
X139065000Y-64643000D01*
X139055698Y-64644750D01*
X138926948Y-64516000D01*
X138938000Y-64516000D01*
X138984159Y-64507315D01*
X139026553Y-64480035D01*
X139054994Y-64438410D01*
X139065000Y-64389000D01*
X139065000Y-64201365D01*
X139080464Y-64125000D01*
X139080464Y-62875000D01*
X139065000Y-62792817D01*
X139065000Y-62611000D01*
X139056315Y-62564841D01*
X139029035Y-62522447D01*
X138987410Y-62494006D01*
X138938000Y-62484000D01*
X137414000Y-62484000D01*
X137367841Y-62492685D01*
X137325447Y-62519965D01*
X137297006Y-62561590D01*
X137287000Y-62611000D01*
X137287000Y-64366000D01*
X136017000Y-64366000D01*
X136017000Y-64311172D01*
X136023859Y-64301134D01*
X136054464Y-64150000D01*
X136054464Y-62850000D01*
X136027897Y-62708810D01*
X136017000Y-62691875D01*
X136017000Y-62611000D01*
X136008315Y-62564841D01*
X135981035Y-62522447D01*
X135939410Y-62494006D01*
X135890000Y-62484000D01*
X135776932Y-62484000D01*
X135666000Y-62461536D01*
X134966000Y-62461536D01*
X134846615Y-62484000D01*
X134747000Y-62484000D01*
X134700841Y-62492685D01*
X134658447Y-62519965D01*
X134630006Y-62561590D01*
X134620000Y-62611000D01*
X134620000Y-62681510D01*
X134608141Y-62698866D01*
X134577536Y-62850000D01*
X134577536Y-64150000D01*
X134604103Y-64291190D01*
X134620000Y-64315895D01*
X134620000Y-64389000D01*
X134628685Y-64435159D01*
X134655965Y-64477553D01*
X134697590Y-64505994D01*
X134747000Y-64516000D01*
X134785000Y-64516000D01*
X134785000Y-64577000D01*
X134825420Y-64780205D01*
X134888092Y-64874000D01*
X134366000Y-64874000D01*
X134366000Y-64770000D01*
X134357315Y-64723841D01*
X134330035Y-64681447D01*
X134288410Y-64653006D01*
X134239000Y-64643000D01*
X131445000Y-64643000D01*
X131398841Y-64651685D01*
X131356447Y-64678965D01*
X131328006Y-64720590D01*
X131318000Y-64770000D01*
X131318000Y-65024000D01*
X131204932Y-65024000D01*
X131094000Y-65001536D01*
X130475020Y-65001536D01*
X130475118Y-64889135D01*
X130371661Y-64638748D01*
X130180259Y-64447013D01*
X129930054Y-64343118D01*
X129659135Y-64342882D01*
X129408748Y-64446339D01*
X129217013Y-64637741D01*
X129113118Y-64887946D01*
X129113019Y-65001536D01*
X128998484Y-65001536D01*
X127896464Y-63899516D01*
X127896464Y-62900560D01*
X130363116Y-62900560D01*
X130363116Y-64099440D01*
X130389683Y-64240630D01*
X130429000Y-64301731D01*
X130429000Y-64325500D01*
X130437685Y-64371659D01*
X130464965Y-64414053D01*
X130506590Y-64442494D01*
X130556000Y-64452500D01*
X130593422Y-64452500D01*
X130600446Y-64457299D01*
X130751580Y-64487904D01*
X131950460Y-64487904D01*
X132091650Y-64461337D01*
X132105383Y-64452500D01*
X132207000Y-64452500D01*
X132253159Y-64443815D01*
X132295553Y-64416535D01*
X132323994Y-64374910D01*
X132334000Y-64325500D01*
X132334000Y-64123756D01*
X132338924Y-64099440D01*
X132338924Y-64031000D01*
X132677536Y-64031000D01*
X132677536Y-64150000D01*
X132704103Y-64291190D01*
X132715000Y-64308125D01*
X132715000Y-64389000D01*
X132723685Y-64435159D01*
X132750965Y-64477553D01*
X132792590Y-64505994D01*
X132842000Y-64516000D01*
X132955068Y-64516000D01*
X133066000Y-64538464D01*
X133766000Y-64538464D01*
X133885385Y-64516000D01*
X133985000Y-64516000D01*
X134031159Y-64507315D01*
X134073553Y-64480035D01*
X134101994Y-64438410D01*
X134112000Y-64389000D01*
X134112000Y-64318490D01*
X134123859Y-64301134D01*
X134154464Y-64150000D01*
X134154464Y-62850000D01*
X134127897Y-62708810D01*
X134112000Y-62684105D01*
X134112000Y-62611000D01*
X134103315Y-62564841D01*
X134076035Y-62522447D01*
X134034410Y-62494006D01*
X133985000Y-62484000D01*
X133876932Y-62484000D01*
X133766000Y-62461536D01*
X133066000Y-62461536D01*
X132946615Y-62484000D01*
X132842000Y-62484000D01*
X132795841Y-62492685D01*
X132753447Y-62519965D01*
X132725006Y-62561590D01*
X132715000Y-62611000D01*
X132715000Y-62688828D01*
X132708141Y-62698866D01*
X132677536Y-62850000D01*
X132677536Y-62969000D01*
X132338924Y-62969000D01*
X132338924Y-62900560D01*
X132334000Y-62874391D01*
X132334000Y-62674500D01*
X132325315Y-62628341D01*
X132298035Y-62585947D01*
X132256410Y-62557506D01*
X132207000Y-62547500D01*
X132108618Y-62547500D01*
X132101594Y-62542701D01*
X131950460Y-62512096D01*
X130751580Y-62512096D01*
X130610390Y-62538663D01*
X130596657Y-62547500D01*
X130556000Y-62547500D01*
X130509841Y-62556185D01*
X130467447Y-62583465D01*
X130439006Y-62625090D01*
X130429000Y-62674500D01*
X130429000Y-62697793D01*
X130393721Y-62749426D01*
X130363116Y-62900560D01*
X127896464Y-62900560D01*
X127896464Y-62636400D01*
X127889000Y-62596733D01*
X127889000Y-62305000D01*
X145415000Y-62305000D01*
X145415000Y-62599541D01*
X145415000Y-62599541D01*
G37*
X145415000Y-62599541D02*
X145407536Y-62636400D01*
X145407536Y-62969000D01*
X145198464Y-62969000D01*
X145198464Y-62850000D01*
X145171897Y-62708810D01*
X145161000Y-62691875D01*
X145161000Y-62611000D01*
X145152315Y-62564841D01*
X145125035Y-62522447D01*
X145083410Y-62494006D01*
X145034000Y-62484000D01*
X144920932Y-62484000D01*
X144810000Y-62461536D01*
X144110000Y-62461536D01*
X143990615Y-62484000D01*
X143891000Y-62484000D01*
X143844841Y-62492685D01*
X143802447Y-62519965D01*
X143774006Y-62561590D01*
X143764000Y-62611000D01*
X143764000Y-62681510D01*
X143752141Y-62698866D01*
X143721536Y-62850000D01*
X143721536Y-64150000D01*
X143748103Y-64291190D01*
X143764000Y-64315895D01*
X143764000Y-64389000D01*
X143772685Y-64435159D01*
X143799965Y-64477553D01*
X143841590Y-64505994D01*
X143891000Y-64516000D01*
X143999068Y-64516000D01*
X144110000Y-64538464D01*
X144646766Y-64538464D01*
X144607118Y-64633946D01*
X144607060Y-64699992D01*
X144305516Y-65001536D01*
X144110000Y-65001536D01*
X144039182Y-65014861D01*
X144000580Y-64820795D01*
X143885474Y-64648526D01*
X143631474Y-64394526D01*
X143459205Y-64279420D01*
X143279495Y-64243673D01*
X143298464Y-64150000D01*
X143298464Y-62850000D01*
X143271897Y-62708810D01*
X143256000Y-62684105D01*
X143256000Y-62611000D01*
X143247315Y-62564841D01*
X143220035Y-62522447D01*
X143178410Y-62494006D01*
X143129000Y-62484000D01*
X143020932Y-62484000D01*
X142910000Y-62461536D01*
X142210000Y-62461536D01*
X142090615Y-62484000D01*
X141986000Y-62484000D01*
X141939841Y-62492685D01*
X141897447Y-62519965D01*
X141869006Y-62561590D01*
X141859000Y-62611000D01*
X141859000Y-62688828D01*
X141852141Y-62698866D01*
X141821536Y-62850000D01*
X141821536Y-63667273D01*
X141614054Y-63581118D01*
X141343135Y-63580882D01*
X141092748Y-63684339D01*
X140901013Y-63875741D01*
X140797118Y-64125946D01*
X140796882Y-64396865D01*
X140898582Y-64643000D01*
X139065000Y-64643000D01*
X139055698Y-64644750D01*
X138926948Y-64516000D01*
X138938000Y-64516000D01*
X138984159Y-64507315D01*
X139026553Y-64480035D01*
X139054994Y-64438410D01*
X139065000Y-64389000D01*
X139065000Y-64201365D01*
X139080464Y-64125000D01*
X139080464Y-62875000D01*
X139065000Y-62792817D01*
X139065000Y-62611000D01*
X139056315Y-62564841D01*
X139029035Y-62522447D01*
X138987410Y-62494006D01*
X138938000Y-62484000D01*
X137414000Y-62484000D01*
X137367841Y-62492685D01*
X137325447Y-62519965D01*
X137297006Y-62561590D01*
X137287000Y-62611000D01*
X137287000Y-64366000D01*
X136017000Y-64366000D01*
X136017000Y-64311172D01*
X136023859Y-64301134D01*
X136054464Y-64150000D01*
X136054464Y-62850000D01*
X136027897Y-62708810D01*
X136017000Y-62691875D01*
X136017000Y-62611000D01*
X136008315Y-62564841D01*
X135981035Y-62522447D01*
X135939410Y-62494006D01*
X135890000Y-62484000D01*
X135776932Y-62484000D01*
X135666000Y-62461536D01*
X134966000Y-62461536D01*
X134846615Y-62484000D01*
X134747000Y-62484000D01*
X134700841Y-62492685D01*
X134658447Y-62519965D01*
X134630006Y-62561590D01*
X134620000Y-62611000D01*
X134620000Y-62681510D01*
X134608141Y-62698866D01*
X134577536Y-62850000D01*
X134577536Y-64150000D01*
X134604103Y-64291190D01*
X134620000Y-64315895D01*
X134620000Y-64389000D01*
X134628685Y-64435159D01*
X134655965Y-64477553D01*
X134697590Y-64505994D01*
X134747000Y-64516000D01*
X134785000Y-64516000D01*
X134785000Y-64577000D01*
X134825420Y-64780205D01*
X134888092Y-64874000D01*
X134366000Y-64874000D01*
X134366000Y-64770000D01*
X134357315Y-64723841D01*
X134330035Y-64681447D01*
X134288410Y-64653006D01*
X134239000Y-64643000D01*
X131445000Y-64643000D01*
X131398841Y-64651685D01*
X131356447Y-64678965D01*
X131328006Y-64720590D01*
X131318000Y-64770000D01*
X131318000Y-65024000D01*
X131204932Y-65024000D01*
X131094000Y-65001536D01*
X130475020Y-65001536D01*
X130475118Y-64889135D01*
X130371661Y-64638748D01*
X130180259Y-64447013D01*
X129930054Y-64343118D01*
X129659135Y-64342882D01*
X129408748Y-64446339D01*
X129217013Y-64637741D01*
X129113118Y-64887946D01*
X129113019Y-65001536D01*
X128998484Y-65001536D01*
X127896464Y-63899516D01*
X127896464Y-62900560D01*
X130363116Y-62900560D01*
X130363116Y-64099440D01*
X130389683Y-64240630D01*
X130429000Y-64301731D01*
X130429000Y-64325500D01*
X130437685Y-64371659D01*
X130464965Y-64414053D01*
X130506590Y-64442494D01*
X130556000Y-64452500D01*
X130593422Y-64452500D01*
X130600446Y-64457299D01*
X130751580Y-64487904D01*
X131950460Y-64487904D01*
X132091650Y-64461337D01*
X132105383Y-64452500D01*
X132207000Y-64452500D01*
X132253159Y-64443815D01*
X132295553Y-64416535D01*
X132323994Y-64374910D01*
X132334000Y-64325500D01*
X132334000Y-64123756D01*
X132338924Y-64099440D01*
X132338924Y-64031000D01*
X132677536Y-64031000D01*
X132677536Y-64150000D01*
X132704103Y-64291190D01*
X132715000Y-64308125D01*
X132715000Y-64389000D01*
X132723685Y-64435159D01*
X132750965Y-64477553D01*
X132792590Y-64505994D01*
X132842000Y-64516000D01*
X132955068Y-64516000D01*
X133066000Y-64538464D01*
X133766000Y-64538464D01*
X133885385Y-64516000D01*
X133985000Y-64516000D01*
X134031159Y-64507315D01*
X134073553Y-64480035D01*
X134101994Y-64438410D01*
X134112000Y-64389000D01*
X134112000Y-64318490D01*
X134123859Y-64301134D01*
X134154464Y-64150000D01*
X134154464Y-62850000D01*
X134127897Y-62708810D01*
X134112000Y-62684105D01*
X134112000Y-62611000D01*
X134103315Y-62564841D01*
X134076035Y-62522447D01*
X134034410Y-62494006D01*
X133985000Y-62484000D01*
X133876932Y-62484000D01*
X133766000Y-62461536D01*
X133066000Y-62461536D01*
X132946615Y-62484000D01*
X132842000Y-62484000D01*
X132795841Y-62492685D01*
X132753447Y-62519965D01*
X132725006Y-62561590D01*
X132715000Y-62611000D01*
X132715000Y-62688828D01*
X132708141Y-62698866D01*
X132677536Y-62850000D01*
X132677536Y-62969000D01*
X132338924Y-62969000D01*
X132338924Y-62900560D01*
X132334000Y-62874391D01*
X132334000Y-62674500D01*
X132325315Y-62628341D01*
X132298035Y-62585947D01*
X132256410Y-62557506D01*
X132207000Y-62547500D01*
X132108618Y-62547500D01*
X132101594Y-62542701D01*
X131950460Y-62512096D01*
X130751580Y-62512096D01*
X130610390Y-62538663D01*
X130596657Y-62547500D01*
X130556000Y-62547500D01*
X130509841Y-62556185D01*
X130467447Y-62583465D01*
X130439006Y-62625090D01*
X130429000Y-62674500D01*
X130429000Y-62697793D01*
X130393721Y-62749426D01*
X130363116Y-62900560D01*
X127896464Y-62900560D01*
X127896464Y-62636400D01*
X127889000Y-62596733D01*
X127889000Y-62305000D01*
X145415000Y-62305000D01*
X145415000Y-62599541D01*
M02*
